<?xml version="1.0" encoding="UTF-8"?>
<svg enable-background="new 0 0 442.285 401.143" viewBox="0 0 442.285 401.143" xmlns="http://www.w3.org/2000/svg">
 <path d="m359.84 295.25c3.006 3.007 3.006 7.881 0 10.886l-65.348 65.323c-3.006 3.006-7.885 3.006-10.891 0l-65.347-65.322c-3.007-3.006-3.007-7.88 0-10.887l65.347-65.322c3.006-3.004 7.885-3.004 10.891 1e-3l65.348 65.321z" fill="#c31b1d"/>
 <path d="m356.91 224.89 5.19-8.886 5.189 8.886h-2.594v31.987h-5.189v-31.987z" fill="#c31b1d"/>
 <path d="m338.74 224.89 5.19-8.886 5.191 8.886h-2.594v31.987h-5.191v-31.987z" fill="#c31b1d"/>
 <path d="m375.07 224.89 5.188-8.886 5.191 8.886h-2.596v31.987h-5.189v-31.987z" fill="#c31b1d"/>
 <path d="m341.34 256.87h41.52v3.554h-41.52z" fill="#c31b1d"/>
 <path d="m359.5 260.43h5.189v119.06h-5.189z" fill="#c31b1d"/>
 <path d="m313.607,59.66c-15.178-10.746-28.176-25.849-29.742-31.974-1.828,6.252-13.498,20.938-29.895,31.675-16.91,11.069-42.306,21.42-42.114,49.111 .337,48.671 49.667,59.797 69.836,21.434-.555,12.782-3.885,36.354-15.527,39.208-1.035.253-2.115,1.68-1.066,2.343 8.123,5.125 33.02,3.16 36.787,2.341 4.586-.981 2.102-3.273 1.803-3.438-8.904-4.84-16.674-21.393-17.375-39.546 19.859,35.688 69.072,26.272 69.406-22.041 .194-27.691-25.517-37.361-42.113-49.113z"/>
 <path d="m334.025,107.614c.764.604.381,1.509.381,2.112-4.967-.301-8.021-4.829-8.787-8.451-1.527-4.527-.762-9.055-1.145-13.583h1.145c-1.527-1.509-3.055-2.716-4.584-4.225 0-.302-.764-.302-.764-.906 1.529.906 3.057,1.811 4.203,3.019 2.293,2.414 3.82,4.829 4.584,7.546 .381,2.717.381,5.132 1.146,7.546 1.146,2.112 2.293,4.226 3.82,6.339 .001.301.001.301.001.603"/>
 <path d="m334.025,107.614v1.812c0,.301-.764.301-1.146.301-4.584-2.112-6.494-5.433-7.641-9.356-1.146-4.226 0-8.149-.764-12.376 .383,0 .764-.604 1.145-.302v.302c-1.145-2.112-3.438-3.923-5.348-5.433 1.529,1.208 3.439,2.112 4.203,3.622l.764.302c1.91,2.415 3.439,4.829 3.82,7.546 .381,4.227 1.146,8.452 4.203,12.073 .382.604.382,1.207.764,1.509 .381,0-.764-.604 0-.905-3.057-3.623-4.203-8.15-4.586-12.375-.762-4.227-3.438-8.15-7.639-11.168-.383-.303-1.146-.604-1.91-.604 2.291,1.51 3.438,3.622 5.729,5.131-.381,0-1.527-.302-1.527.302 .383,5.735-.764,11.772 3.057,17.206 .764.603 1.146,1.206 1.91,2.112 1.527,1.207 3.439,3.622 5.73,2.113 0-.303.383-1.51-.764-1.812z"/>
 <path d="m394.004,30.344c1.146,0 2.293.604 3.438.905v.604c-7.258,3.019-16.809.604-22.156-3.924-1.912-1.509-4.586-2.113-6.877-3.32-.764-.302-1.146-.604-1.146-1.207h.383c-3.059-.905-6.113.302-9.17,0 8.404-1.811 16.428.302 23.686,4.226 3.818,1.81 8.022,1.81 11.842,2.716"/>
 <path d="m394.004,30.344c1.146,0 2.293.302 3.057.905v.604c-3.82,1.812-8.404,1.51-12.607.303h-1.146c-1.146-.604-2.674-.906-3.82-1.51-3.82-2.717-8.021-4.527-12.225-6.942 .383,0 .383-.604.383-.604-3.059-.302-6.113,0-9.17.302 8.787-1.811 16.811.604 24.451,4.527 1.527.604 3.055,1.207 4.584,1.207 .381,0 1.146.604 1.527.604 1.91-.302 3.82.905 5.348.302-6.875-.302-12.607-3.019-18.719-5.434-5.348-2.414-11.842-3.018-17.572-.905 3.055-.302 6.492-.302 9.551-.302-.383,0-.383.302-.766.302 .766.905 1.91,1.208 2.676,1.812 3.818,1.509 6.875,3.924 10.695,5.734 4.967,2.113 11.08,2.717 16.428,1.207 .764-.301 1.146-.604.764-1.207-.764-.905-1.91-.905-3.057-1.207l-.382.302z"/>
 <path d="m391.252,13.017c1.301-.064 3.814-.174 5.373-.221 6.434-.254 6.244.058 6.527.35l-1.08.132c-3.182,2.49-21.283,4.692-37.633,6.323-7.822.89-14.77,2.925-22.666,3.845 0,0-.07-.271-.145-.542-1.107.445-1.643.811-2.789,1.272-1.777.565-2.959,1.344-4.814,1.338v-.604c6.438-6.35 14.41-9.062 23.275-10.018 7.107-.7 15.809-.858 21.312-1.493 2.451-.191 1.152-.343 5.979-.319 1.534-.001 4.858-.056 6.661-.063"/>
 <path d="m391.252,13.017c1.301-.064 3.814-.174 5.373-.221 6.434-.254 6.244.058 6.527.35l-1.08.132c-3.182,2.49-21.283,4.692-37.633,6.323-7.822.89-14.77,2.925-22.666,3.845 0,0-.07-.271-.145-.542-1.107.445-1.643.811-2.789,1.272-1.777.565-2.959,1.344-4.814,1.338v-.604c6.438-6.35 14.41-9.062 23.275-10.018 7.107-.7 15.809-.858 21.312-1.493 2.451-.191 1.152-.343 5.979-.319 1.534-.001 4.858-.056 6.661-.063"/>
 <path d="m423.42,16.459c2.674-.604 4.967-.604 7.641-1.207 .383,0 .383.604.383.905-.766.604-1.529.906-2.293,1.51-.764.301-1.146.604-1.91.904h-.764c-9.934,4.227-22.922,4.227-33.236,1.208-6.496-2.112-12.99-2.415-19.867-3.019v-.604c-5.348.906-9.932,2.717-14.898,4.527 .383,0 .764-.302.764-.604h.764c.766-.604 1.146-.905 1.912-1.207 2.291-.604 4.584-1.811 6.875-2.415 1.91-.302 3.82-.905 6.113-1.207 4.203-.604 8.023-.906 12.225-.604 4.967.604 9.551,1.811 14.518,2.716 7.638.909 14.515.002 21.773-.903"/>
 <path d="m423.42,16.459c2.674-.604 4.967-.604 7.641-1.207 .383,0 .383.604.383.905-.766.604-1.529.906-2.293,1.51-.764.301-1.146.604-1.91.904h-.764c-9.934,4.227-22.922,4.227-33.236,1.208-6.496-2.112-12.99-2.415-19.867-3.019v-.604c-5.348.906-9.932,2.717-14.898,4.527 .383,0 .764-.302.764-.604h.764c.766-.604 1.146-.905 1.912-1.207 2.291-.604 4.584-1.811 6.875-2.415 1.91-.302 3.82-.905 6.113-1.207 4.203-.604 8.023-.906 12.225-.604 4.967.604 9.551,1.811 14.518,2.716 7.638.909 14.515.002 21.773-.903"/>
 <path d="m426.477,21.892c2.674-.301 5.73-.904 8.404-.301-4.203,3.32-10.314,4.225-16.045,4.829-6.113.604-12.225-.302-17.955-1.812-2.676-.905-5.35-2.112-8.023-3.018-5.348-1.812-11.08-1.812-16.428-3.32-.381,0 0-.303.383-.303-1.91,0-3.439.604-5.348.604-.766,0-1.146.303-1.91.604-3.057.302-5.73,1.509-8.406,2.112 .766,0 1.146-.604 1.91-.905 3.82-1.207 7.641-2.415 11.844-3.019 4.967-.604 9.934-.604 14.898,0 4.584.906 8.404,2.113 12.607,3.019 7.641,2.416 16.045,2.114 24.069,1.51"/>
 <path d="m426.477,21.892c2.674-.301 5.73-.904 8.404-.301-4.203,3.32-10.314,4.225-16.045,4.829-6.113.604-12.225-.302-17.955-1.812-2.676-.905-5.35-2.112-8.023-3.018-5.348-1.812-11.08-1.812-16.428-3.32-.381,0 0-.303.383-.303-1.91,0-3.439.604-5.348.604-.766,0-1.146.303-1.91.604-3.057.302-5.73,1.509-8.406,2.112 .766,0 1.146-.604 1.91-.905 3.82-1.207 7.641-2.415 11.844-3.019 4.967-.604 9.934-.604 14.898,0 4.584.906 8.404,2.113 12.607,3.019 7.641,2.416 16.045,2.114 24.069,1.51"/>
 <path d="m413.869,27.929c2.674.303 5.348-.604 8.023.303v.604c-10.697,4.527-22.924,3.32-33.619-.303-3.82-1.509-7.258-3.621-11.461-5.131-3.82-1.207-7.641-2.113-11.844-3.019v-.604c-5.348-.302-10.695.905-16.045,2.112 9.17-3.018 20.248-3.621 29.799-1.207h1.146c4.967,1.812 9.932,3.924 15.281,5.434 6.113,1.509 12.226,1.811 18.72,1.811"/>
 <path d="m413.869,27.929c2.674.303 5.348-.604 8.023.303v.604c-10.697,4.527-22.924,3.32-33.619-.303-3.82-1.509-7.258-3.621-11.461-5.131-3.82-1.207-7.641-2.113-11.844-3.019v-.604c-5.348-.302-10.695.905-16.045,2.112 9.17-3.018 20.248-3.621 29.799-1.207h1.146c4.967,1.812 9.932,3.924 15.281,5.434 6.113,1.509 12.226,1.811 18.72,1.811"/>
 <path d="m393.621,33.362c.764.302 2.293.302 3.057.905v.604c-1.146,1.208-3.057,1.208-4.967,1.509-5.348.303-9.934-.904-14.516-3.32l-.383-.604c-1.527-.604-2.674-1.509-3.82-2.414-2.293-.906-4.584-1.811-6.494-3.019-.383-.302 0-.604.381-.604-3.055,0-6.111-.302-9.168.302 4.967-1.51 9.934-1.207 14.898,0 4.967,1.51 9.168,4.527 14.518,5.734 2.293.304 4.203.605 6.494.907"/>
 <path d="m393.24,33.362c.764.905 2.291.604 3.438,1.207-1.91,2.414-6.877,1.51-9.934,1.207-6.111-.301-10.314-3.621-15.279-6.641-1.529-.904-3.439-.904-4.586-2.112 .383-.302-.381-.604.383-.604-3.057-.604-6.494-.302-9.551,0 0,0 0,.302.383.302 2.291-.906 4.965-.906 7.641-.906 2.674.303 5.73.303 8.404,1.51 6.111,3.019 12.225,5.734 19.482,6.037-1.91-.303-3.438-.604-5.348-.906-3.057-.604-5.348-1.207-8.023-2.414-6.877-3.924-14.898-5.434-22.539-3.32 3.057-.302 6.113-.302 9.168-.302-.381,0-.381.302-.381.604 .381.604 1.527.905 2.291,1.509 4.203,1.51 6.877,3.924 10.697,5.735 5.35,2.112 12.99,3.622 17.574.302-.763-.906-2.675-.906-3.82-1.208z"/>
 <path d="m382.926,37.286c.764.302.764.302 1.145.905s-.764.302-.764.905c-3.438.303-6.877-.604-9.551-2.113-2.291-1.508-3.82-3.018-5.348-5.131l-3.439-2.717c0-.301-.383-.604-.383-.904 .383,0 .766,0 .766-.303l-3.438-.905c-1.146,0-1.912-.302-3.057-.302 3.82-.302 7.258.905 10.314,2.414 4.585,3.02 8.024,6.641 13.755,8.151"/>
 <path d="m382.543,37.286c.383.302 1.527,1.207 1.146,1.207-8.787,2.113-14.135-5.131-18.721-9.961-.383-.301 0-.604.766-.604-2.676-.302-4.586-1.509-7.26-1.207 3.439-.302 6.877.604 9.934,2.113 3.438,1.509 4.965,4.527 8.404,6.036 1.91.905 3.82,1.812 6.113,2.415-2.293-1.207-4.967-1.811-7.26-3.32-2.674-1.811-4.201-3.924-7.258-5.434s-6.494-2.112-9.934-1.811c2.293.302 4.584.905 6.877,1.207-.766,0-1.146.604-.766.906 .766.604 1.148,1.207 2.293,1.811 2.293,2.113 4.203,4.527 6.877,6.338 3.057,1.51 6.877,3.623 10.314,1.51v-.602c-.379-.302-.761-.604-1.525-.604z"/>
 <path d="m374.902,39.399c.764.604 1.146,1.207.764,1.207-1.527.604-3.438.302-4.584-.604h-.764c-1.91-1.208-4.203-2.415-5.35-4.227l-.764-.301c-2.291-3.32-3.057-6.641-5.73-9.961v-.906h1.146c-2.291-1.207-4.203-2.414-6.877-3.32 3.057.604 5.35,1.812 8.023,3.32 2.291,1.51 3.818,3.32 4.967,5.434 .381,1.509 1.527,2.717 2.291,3.924l.764.302c1.148,2.113 4.585,3.019 6.114,5.132"/>
 <path d="m374.902,39.399c0,.301.383.904.383,1.207-.383.604-1.146.302-1.912.302-2.291-.604-4.201-1.509-6.111-2.717-3.057-2.716-4.967-5.735-6.113-9.356-.764-1.208-1.527-2.113-2.291-3.32v-.906h1.145c-2.291-1.207-4.584-2.414-6.875-3.32 2.291.906 4.584,1.51 6.494,2.717 .381.302.764.906 1.146,1.207 3.438,1.812 4.201,4.83 6.111,7.547 2.293,2.717 4.967,5.131 8.406,6.641-.383-.303-.383-.604-.766-.906-1.91-.905-3.438-2.113-4.965-3.32-3.439-3.32-4.586-7.546-8.787-10.564-2.674-1.509-4.967-3.32-8.404-3.32 2.674.906 4.967,1.812 7.258,3.32-.383,0-.764-.302-1.146-.302l-.381.302c.764,2.717 3.055,4.527 3.82,7.244 1.91,4.527 7.258,10.263 14.135,8.451 0-.002 0-.907-1.147-.907z"/>
 <path d="m371.465,40.606c0,.302.764.604.764.905-2.293,1.208-4.584-.604-6.494-1.509-.383-.303-.383-.604-1.148-.906 0,0-.381-.302-.381-.604-.381,0-.764-.302-.764-.302-1.527-2.716-3.439-5.433-4.967-8.451h.764c-1.527-1.208-3.438-1.812-5.348-2.415 3.057.604 5.73,1.811 8.023,3.622 1.527,1.509 2.672,3.32 3.82,5.132 1.145,2.113 3.821,3.019 5.731,4.528"/>
 <path d="m371.465,40.606c.381.302.381.905.381,1.207-3.82.302-7.641-2.113-9.168-4.83-1.146-2.414-2.676-4.828-4.203-7.243h1.146c-1.91-.905-3.439-2.113-5.73-2.415 3.439.604 6.111,2.113 8.404,4.226 3.057,3.32 4.967,7.244 9.551,9.056-1.146-.906-2.291-1.51-3.438-2.113-1.529-1.207-3.057-2.414-3.822-3.924-1.908-3.622-6.111-6.641-10.695-7.244 1.91.604 3.82,1.207 5.348,2.415-.381,0-.381-.302-.764-.302l-.381.302c3.055,4.829 5.73,12.073 14.135,12.073-.383-.302.38-1.208-.764-1.208z"/>
 <path d="m366.498,45.436c.381.302.764.905.764,1.208-2.676,1.509-4.967-1.208-7.26-2.113l-1.145-.906c-3.439-3.32-4.203-7.545-6.113-11.469h.766c-1.529-1.208-3.439-1.812-5.35-3.02 3.82,1.208 6.494,3.02 9.17,5.434 1.908,2.113 1.908,4.226 3.818,6.339 .383,0 .766.302.766.302 1.145,1.81 3.055,2.716 4.584,4.225"/>
 <path d="m366.115,45.436c.764.302.764.905.764,1.509-6.877-.301-10.697-6.036-11.842-10.865-.383-.906-1.146-1.208-1.146-2.113 0-.302-.764-.302-.764-.604v-1.207h.764c-.764-.604-1.527-.906-2.293-1.51-.764-.302-1.145-.604-1.908-.905-.766,0-1.146-.604-1.912-.604 4.586,1.208 8.023,3.623 9.934,6.641 2.291,3.623 4.584,7.244 8.787,9.357-3.82-2.414-6.113-5.734-8.404-9.357-1.912-3.018-5.73-5.734-10.316-6.641 1.912.906 3.82,1.812 5.732,3.02-.383,0-.766,0-.766.301v.906c1.529.905 1.529,2.414 1.91,3.621 1.91,4.528 6.113,10.564 12.607,9.66 0,0 .383-.906-.764-1.51l-.383.301z"/>
 <path d="m321.418,123.913c.383.905.764,1.812.383,2.717h-.766c-1.145-.604-1.908-.905-2.674-1.812v-.604c-.764-.302-.764-.905-1.527-1.509s-.383-1.51-.764-2.113c-1.146-2.112-1.529-4.527-1.146-6.942 .381-1.207.381-2.414 1.146-3.621 .764-2.113 0-4.528.764-6.641h.764c-1.146-2.113-2.674-3.924-4.203-5.735 2.293,1.51 3.82,3.925 4.967,6.037 2.674,4.527.383,9.659 1.146,14.488 .383,1.812 1.146,3.925 1.91,5.735"/>
 <path d="m321.418,123.913c-.383.604.383,1.51.383,2.113 0,.302-.383.302-.383.604-4.967-2.112-6.877-7.848-6.113-12.073 .383-3.622.766-7.244 1.529-10.866 0-.302.381-.302.764-.302-1.146-2.113-2.293-4.226-4.203-5.735 1.91,1.812 3.82,3.622 4.967,6.037 1.91,4.226.766,8.753.766,13.281 .381,2.112 1.527,4.225 1.908,6.64 0,.302.383.302.766.302-1.146-2.112-1.529-4.226-2.293-6.64-.764-3.924 1.527-7.547 0-11.169l-1.146-2.716c-1.146-2.113-2.674-3.924-4.584-5.735h-.764c1.91,1.812 3.057,3.925 4.584,5.735h-1.146c-.764,2.716-.381,5.131-1.146,7.848-1.527,5.434-.764,11.771 5.35,15.394 .764.302 2.291-.302 1.527-.905-1.149-.605 1.144-1.511-.766-1.813z"/>
 <path d="m368.025,58.717c.764.301.764.301 1.146.905s-.764.302-.764.905c-3.439.302-6.877-.604-9.551-2.113-2.293-1.509-3.82-3.018-5.348-5.131l-3.439-2.716c0-.303-.381-.604-.381-.906 .381,0 .764,0 .764-.302l-3.439-.905c-1.146,0-1.91-.302-3.057-.302 3.82-.302 7.26.905 10.316,2.415 4.585,3.018 8.023,6.64 13.753,8.15"/>
 <path d="m367.645,58.717c.381.301 1.527,1.207 1.145,1.207-8.787,2.113-14.135-5.132-18.719-9.961-.381-.302 0-.604.764-.604-2.674-.302-4.584-1.509-7.258-1.207 3.438-.302 6.877.604 9.934,2.112 3.438,1.51 4.965,4.527 8.404,6.037 1.91.905 3.82,1.812 6.111,2.415-2.291-1.208-4.967-1.812-7.258-3.32-2.674-1.812-4.203-3.925-7.258-5.434-3.057-1.509-6.496-2.112-9.934-1.811 2.291.302 4.584.905 6.877,1.207-.764,0-1.146.604-.764.905 .764.604 1.145,1.207 2.291,1.812 2.293,2.112 4.201,4.527 6.877,6.338 3.057,1.51 6.877,3.623 10.314,1.51v-.603c-.382-.302-.763-.603-1.526-.603z"/>
 <path d="m326.385,118.782c.764.905.383,1.811.383,2.717 0,.302-.383.302-.766.302-3.057-1.811-4.584-4.226-5.73-6.942-1.145-3.32-.764-6.641.383-9.961 .764-2.414.381-4.829.764-7.546h.764c-.764-2.113-2.291-4.226-4.201-6.037l2.291,1.812v.604c2.674,2.113 3.439,4.829 4.203,7.546 .764,4.226-1.146,7.848 0,12.074 .762,1.809 1.143,3.621 1.909,5.431"/>
 <path d="m326.385,118.782c-.766.905 1.146,1.811 0,2.717h-.766c-3.055-1.812-4.201-4.527-5.348-7.244-1.91-5.735 1.146-10.866 1.146-16.602 0,0 .764-.604 1.146-.302-1.529-2.113-2.674-4.226-4.584-6.037 3.438,3.02 6.111,6.641 6.494,10.867 .383,3.319-.764,6.64-.383,9.96 .383,2.113 1.527,4.226 1.91,6.339 0,.302.383.302.766.302-1.148-2.112-1.91-4.226-2.293-6.339-.764-4.829 1.527-9.659-.764-14.186-1.146-2.415-2.676-4.83-5.35-6.943h-.764c1.91,1.812 3.438,3.924 4.584,6.037l-.381-.302c-.383,0-.766.302-.766.604 0,2.717-.381,5.433-1.145,8.149-1.529,5.735-.383,12.678 6.494,15.998 .764.302 0-.604.764-.604-.377-.904.003-1.81-.76-2.414z"/>
 <path d="m330.969,111.538c-.383.905 1.146,2.112 0,3.019h-.764c-4.203-2.717-5.348-6.339-6.113-10.263-.381-3.019 1.146-5.735 1.527-8.753 0-1.51-.381-3.32.383-4.83 0-.302.383-.302.766-.302v.302c-.766-2.112-1.91-4.226-4.203-5.734-.383-.303 0-.303.381-.303 3.057,3.019 5.732,6.339 5.732,10.264 .761,5.734-.766,11.468 2.291,16.6"/>
 <path d="m330.586,111.538c.383.905.766,2.112.383,3.019-.383.302-.764-.302-1.146-.302-1.145-.604-1.527-1.812-2.674-2.415-1.529-1.51-2.291-3.622-2.674-5.735-.764-5.131 1.527-9.96 1.527-15.092 0-.302.766-.302 1.146-.302-1.146-2.112-2.674-4.226-4.584-6.037 3.055,2.717 5.348,5.735 6.113,9.357 .762,3.924-.766,7.547 0,11.47 .762,2.113 1.145,4.226 2.291,6.339-.764-2.717-2.291-5.434-2.291-8.451 0-2.113.381-3.924.381-6.037 .381-1.509 0-3.32-.381-4.829-1.146-3.019-3.059-5.734-5.732-7.849h-.764c1.91,1.812 3.057,3.623 4.586,5.735-.766-.302-1.148.604-1.148.604-.381,3.622-.762,6.641-1.527,10.263-.381,2.717 0,5.434 1.146,7.848 .381.604.764,1.207 1.146,2.113 1.146,1.51 2.674,3.32 4.967,3.32 .001-.907.381-2.114-.765-3.019z"/>
 <path d="m340.139,107.312c.381.905 1.527,1.811 1.145,3.018-2.674.303-4.584-1.509-6.111-2.716-2.293-2.414-4.586-4.83-4.967-7.848-.766-4.829-1.91-9.357-2.293-13.885h.766c-1.91-2.112-4.203-3.924-6.877-5.735 5.73,2.717 9.932,6.642 11.461,11.771 .764,3.32 1.527,6.34 2.674,9.66 1.145,2.113 2.672,3.924 4.202,5.735"/>
 <path d="m339.756,107.312c1.146.905 1.146,1.811 1.146,3.018-3.82-.301-6.113-3.319-8.404-5.734-1.146-1.812-1.912-3.622-2.293-5.433-1.146-4.226-1.146-8.15-2.293-12.375 0-.303 0-.604.383-.906h.764c-2.291-1.811-4.201-3.924-6.877-5.735 0,.303 0,.303-.381.303h.764c4.584,2.717 8.021,5.734 9.934,9.96 .381,1.208.764,2.113 1.145,3.32 0,1.208.383,2.113.383,3.32 0,.604.381.905.764,1.509v.906c1.146,2.717 3.438,5.131 4.967,7.546 0,.604.383.302.764.302-4.201-4.227-5.73-9.357-7.258-14.79-1.146-5.132-5.35-9.356-11.08-12.376-.381,0-.764,0-.381.303 2.674,1.509 4.584,3.32 6.494,5.433l.383-.302c-.383.302-.766.302-1.146.302 .381,3.622 1.527,6.942 1.908,10.564 0,4.829 2.676,9.658 8.023,12.979 .764.301 1.146.604 1.91.904 .766.303 1.91.604 2.293-.301 0-.906-.764-1.812-1.146-2.717h-.766z"/>
 <path d="m342.811,101.88v.604c.766.603 1.146,1.811 1.146,2.717-6.875-1.208-10.695-6.942-12.225-12.074-.764-2.717-.381-5.434-.764-8.149-.383-1.811-1.529-3.622-1.146-5.735h.764c-1.908-2.415-4.584-4.226-7.258-6.036 5.73,2.717 9.934,6.941 11.461,11.771 1.91,6.035 3.438,11.77 8.022,16.902"/>
 <path d="m342.43,101.88c.764.904 1.146,2.112 1.146,3.32-7.641-2.114-11.461-8.452-12.225-14.489-.383-3.32-.383-6.64-1.529-9.96 0-.604-.383-1.208.383-1.51h.764c-2.291-1.811-4.201-3.622-6.494-5.433-.383-.303-.764-.303-1.146-.303h.764c.383.604 1.146.906 1.527,1.208 .766.302 1.148.604 1.912.905 5.73,4.227 8.404,9.659 8.787,15.695 1.527,3.623 3.438,7.547 6.492,10.565-1.908-2.415-3.438-4.83-4.965-7.546-1.91-3.623-1.527-7.849-3.439-11.471-2.291-3.924-5.729-7.546-10.695-9.658-.383,0-.383,0-.383.301 2.291,1.812 5.35,3.32 6.877,5.735l.381-.302c-.381.302-.764.302-1.146.302v1.812c1.529,3.621 1.146,7.244 1.912,10.865 .381,2.416.764,4.528 2.674,6.641 2.674,3.02 4.965,6.642 9.932,6.642 .383,0 .383-.604.383-.906-.766-.904-.766-1.81-1.912-2.413z"/>
 <path d="m345.104,87.994c.383.906 1.529,1.51 1.529,2.415-1.529,0-3.057-.604-4.586-1.207-3.82-1.51-6.875-4.226-8.021-7.546-1.527-3.32-3.439-6.037-4.586-9.357 0-.302.383-.302.766-.302-1.91-.905-3.82-2.113-6.113-3.319h-.764c8.023,1.509 12.607,7.545 15.281,13.582l.764.302c1.528,2.112 3.819,3.622 5.73,5.432"/>
 <path d="m344.723,87.994c.381.906 1.527,1.51 1.527,2.415-4.967-.604-9.168-3.621-11.461-6.941-1.91-3.019-2.674-6.642-4.584-9.659 0-.604-.766-.906-.383-1.51l.383-.302c-2.293-1.207-4.586-2.415-6.877-3.621 1.146.904 3.057.904 4.584,1.811 3.057,1.811 5.73,3.924 7.641,6.339 .766,1.509 1.146,3.32 2.293,4.829 2.293,2.415 4.201,4.829 7.258,6.64-1.527-1.811-3.82-3.018-5.348-4.828-3.057-3.623-3.82-7.547-7.641-10.565-2.293-2.112-5.348-3.019-8.404-4.225h-.766c.766.604 1.912.904 2.674,1.206 .383.302 1.148.604 1.912.906s1.527,1.509 2.674,1.509h-.766v.905l4.586,9.056c1.91,4.226 6.494,8.451 12.607,8.451 .382-.906-.765-1.811-1.909-2.416z"/>
 <path d="m350.07,87.09c.764.904 1.527,1.509 1.527,2.414-.381.604-1.908.302-2.674.302-3.438-1.207-6.494-2.716-8.404-5.434l-.764-.301c-1.529-1.812-2.674-3.622-3.438-5.735-.383-1.811-.766-3.622-1.529-5.434-.764-1.207-1.146-2.716-2.291-3.923v-1.51h.764c-1.91-1.811-4.584-3.019-7.26-3.924 .766-.604-1.145,0-.383-.604 8.023,2.717 13.754,8.451 16.428,15.092 1.147,3.623 4.968,6.339 8.024,9.057"/>
 <path d="m349.689,87.09c.764.904 1.527,1.509 1.527,2.716-2.674,0-4.967-1.207-7.26-2.415-.381-.301-.764-.905-1.146-1.207-6.111-3.622-6.111-9.658-8.404-14.488-.764-1.207-1.145-2.415-1.908-3.622 .381-.302.381-.604 1.145-.604-2.674-1.811-4.965-3.32-8.023-4.527l-.381.302c1.146,0 1.91.302 2.674.905h.766c3.438,1.812 6.494,3.622 8.785,6.339 .383.604.764.905 1.146,1.509 1.146,2.113 1.91,4.226 3.057,6.339 .764,1.207 1.527,2.113 2.291,3.32 1.91,2.113 3.82,3.924 6.113,5.434 0-.604-.764-1.208-1.146-1.51-5.348-3.924-6.877-9.357-10.314-14.187-3.057-3.924-7.258-6.64-12.607-8.451 0,0-1.145,0-.764.302 3.057,1.207 5.348,2.717 8.023,4.226-.383,0-1.146,0-1.146.302 .383,1.208.764,2.112 1.146,3.32 3.057,7.546 5.729,16.601 16.809,19.016 1.527.302 1.91-.604 1.527-1.509-.765-.303-.765-1.51-1.91-1.51z"/>
 <path d="m361.531,74.714c1.146,0 1.91.604 2.674,1.208 .381.301 0,.904-.381,1.207-8.787,1.509-16.811-2.717-21.777-8.149-2.291-1.812-4.584-3.32-6.875-5.132 .381-.302-.383-.604.381-.604-.764-.302-1.91-.604-3.055-.906-2.293-.301-4.203,0-6.496-.604 6.877-.604 13.371.906 18.721,4.227 1.91,1.509 3.82,3.019 6.111,4.527 3.057,1.509 6.113,3.018 9.934,3.622 .38,0 .38.302.763.604"/>
 <path d="m361.531,74.714c.764.604 1.91.604 2.674,1.509v.604c-4.584,1.51-9.932,0-14.135-1.811-.381-.302-1.146-.604-1.91-.905-3.057-1.812-4.967-4.227-7.258-6.339-1.912-1.207-3.439-2.414-5.35-3.924-.381-.302.383-.905.383-.905-2.293-.604-4.967-.905-7.641-1.208-.383,0-1.527-.604-1.91.303 6.113-.906 12.225.604 17.191,3.622 5.732,3.62 10.698,7.242 17.956,9.054l.383-.302c-4.203-.604-7.641-2.717-11.461-4.226-6.113-5.132-15.281-9.961-24.451-8.149 3.438,0 6.496.604 9.551,1.207v-.302c-.381.302-.764.905-.381,1.207 1.527,1.51 3.438,2.113 4.967,3.32 1.145,1.208 3.055,2.112 3.818,3.924 .383.604 1.529,1.207 2.293,1.812 1.146.301 1.91.905 2.674,1.509 4.586,2.112 10.314,3.924 15.281,2.112 .381,0 .381-.301.381-.604-.762-.905-1.527-1.509-2.672-1.811l-.383.303z"/>
 <path d="m363.824,72.299c1.145.604 2.291,1.207 3.055,2.113-4.201,1.811-8.404-.302-12.225-1.51-.764-.604-1.91-.905-2.674-1.509-1.91-1.51-3.82-2.716-4.967-4.829-1.527-1.811-3.82-3.019-5.73-4.83-.381-.604-1.527-.905-1.145-1.811 0-.302 0-.302.381-.302-1.529-.604-3.438-.604-4.967-1.208-1.527-.301-3.055,0-4.201-.604 7.639,0 15.281,2.717 20.246,8.15 .383.302.766.302 1.146.905 0,0 .383.302.766.302 0,.302.381.604.381.604 .764.302 1.91.906 2.674,1.208 0,0 .383.301.383.603 1.146.604 2.674.604 3.438,1.51h.764c.765.604 1.91.604 2.675,1.208"/>
 <path d="m363.824,72.601c1.145.302 1.91.905 2.674,1.51 .381.302 0,.604-.383.604-2.291.302-4.584.302-6.877-.604h-1.145c-4.584-1.51-8.023-4.227-11.08-7.244-.381-.302 0-.604-.381-.905-2.293-1.812-3.822-3.924-6.494-5.434 0-.302 0-.604.381-.905-2.293-1.208-5.348-1.208-8.021-1.812-.383,0-1.146-.302-1.146.303 1.91-.303 4.201,0 6.111.301 .383,0 1.146.604 1.527.604 3.057.604 5.732,1.812 8.406,3.32 3.057,2.416 5.348,4.83 8.785,6.942 2.294,1.509 4.967,2.113 7.643,3.32l.381-.302c-3.82-1.207-7.258-2.717-10.314-4.829-4.201-3.32-7.641-6.942-13.371-8.452-3.057-.604-6.113-1.811-9.168-.904 3.055.301 6.111.604 8.787,1.811 0-1.811-.383,0-.383,0 .383,1.207 1.91,1.811 2.674,3.019 .381.302.764.302 1.146.604 2.291,2.415 3.82,4.527 6.494,6.641 4.203,3.019 9.551,5.433 15.664,4.829 .381,0 .381-.604 1.145-.604-.381-1.207-1.527-1.51-2.674-2.113l-.381.3z"/>
 <path d="m369.172,65.659c.383.604 1.527.604 2.293.905l.764.604c0,.302 0,.604-.383.604-5.73,1.811-12.225.302-17.572-2.414 0,0-.383-.303-.383-.604-.381-.303-1.146-.303-1.527-.604-2.674-3.019-6.877-4.226-9.934-6.641-.383-.302 0-.604.381-.604-3.055-.302-6.111-.302-9.168-.302 6.877-1.207 14.518,0 20.248,3.924 4.584,2.717 9.55,4.528 15.281,5.132"/>
 <path d="m368.789,65.961c1.146,0 2.293.302 3.057.905v.604c-4.584,2.112-9.932.906-14.135-.604-.764-.604-1.91-.905-2.674-1.207-2.293-1.812-4.584-3.019-6.494-4.83-.383-.302-1.146-.302-1.529-.604 0-.302-.381-.604-.381-.604-1.529-.302-2.293-1.509-3.822-1.812 .383-.302-.381-.905.383-.905-3.055-.302-6.494-.905-9.551-.302 4.967-.905 10.314-.302 14.9,1.207 3.438,1.207 6.111,3.32 9.551,5.132 3.437,1.51 6.875,2.114 10.695,3.02l.383-.302c-4.203-.905-8.404-1.51-12.225-3.622-6.877-4.227-15.281-7.547-23.686-5.434 3.057,0 6.494,0 9.549.604 0-1.811-.381,0-.381,0-.383.604.764.906.764,1.207 .383.303 1.146.303 1.529.604 3.438,1.812 5.73,3.925 8.787,6.037 3.438,2.113 6.875,3.019 11.076,3.623 2.293.302 4.586,0 6.879-.604 .764-.302 1.145-.604.764-1.207-.764-.905-1.91-.905-3.057-1.207l-.382.301z"/>
 <path d="m375.285,61.734c1.145.604 3.438.604 3.438,1.812-6.113,2.113-13.754,1.208-19.102-2.415-.383-.302-1.146-.302-1.527-.604-1.529-1.207-3.057-2.113-4.584-3.32h-.766c-1.146-.905-2.291-1.207-3.438-1.811-.383-.303-.383-.604-1.146-.906-.383-.302 0-.302.383-.302-3.057-.604-6.113-.301-9.17,0 8.787-2.717 17.191.905 24.832,4.829 3.44,1.812 7.26,2.114 11.08,2.717"/>
 <path d="m375.285,62.037c1.145.301 2.674.301 2.674,1.207 .381.604-1.146.905-1.91.905-4.967.905-9.551.302-13.754-1.509-.381-.303-1.146-.604-1.91-.906-3.438-2.112-6.111-4.226-9.551-6.036h-.764c-.381-.604-1.527-.604-1.527-1.51l.381-.301c-3.057-.303-6.494,0-9.551,0 6.113-.604 12.225-.906 17.957,2.112s11.078,5.132 17.955,6.038l.381-.303c-3.057-.905-6.111-.604-9.168-1.811-8.404-3.924-17.574-8.753-27.508-5.735 3.057,0 6.496-.604 9.553,0v-.301c-.383.301-.766.603-.383.904 4.584,2.415 8.404,5.132 12.988,7.546 5.35,2.416 12.225,3.925 17.574.906v-.604c-1.146-.303-1.91-.906-3.057-.906l-.38.304z"/>
 <path d="m381.016,52.378c1.145,0 2.674-.302 3.82.604v.604c-4.967,3.32-11.844,3.32-17.574,1.509-4.967-1.206-9.551-3.018-14.518-4.526v-.906c-3.055.604-6.111.906-8.787,1.811 5.35-2.414 11.844-3.319 17.574-1.509 6.494,1.507 12.608,2.715 19.485,2.413"/>
 <path d="m381.016,52.378c1.145.604 2.674,0 3.82.905-3.44,2.717-8.406,3.019-12.99,2.717-6.111-.604-11.078-3.622-16.809-5.132-.764,0-1.527-.301-2.293-.604-.381-.302.766-.302.383-.604-3.057,0-6.113.906-9.17,1.811 8.787-4.225 18.338-.904 27.889.604 3.057.604 6.494.905 9.551,0-6.494.604-12.988-.604-19.102-2.113s-13.371-1.509-18.719,1.812c3.057-.906 6.113-1.51 9.168-2.113 0,.302-.381.302-.381.604s.381.604.764.604c4.584.906 8.787,2.717 12.988,4.226 3.439.906 6.877,1.51 10.314,1.208 2.293-.302 4.586-.604 6.496-1.51 .764-.302 3.055-1.509 1.527-2.414-.764-.302-1.91,0-3.057-.302l-.379.301z"/>
 <path d="m381.396,46.644c1.146-.604 2.674-.303 3.82,0v.604c-7.641,6.338-18.719,3.32-27.887.905-1.148,0-2.293-.302-3.439-.302-.381-.303-1.146,0-1.146-.604v-.604c-1.146.301-2.291.904-3.82.904-1.527.303-3.057,1.208-4.584,1.812 1.146-.604 1.91-1.509 3.438-1.509 .383,0 .383-.604.766-.604 6.875-2.415 14.516-1.51 21.775,0 3.82.605 7.257-.602 11.077-.602"/>
 <path d="m381.396,46.644c1.146,0 2.674-.303 3.82.301-2.291,2.717-6.494,3.32-10.314,3.924-5.348.604-9.934-.905-14.9-2.414-2.291-.604-4.965-.604-7.258-1.207 .383-.303-.381-.604.383-.604-2.293,0-4.203.904-6.494,1.509-.766,0-1.146.604-1.529.905h-.764c-.383.302 0,.302.383.302 6.875-4.226 16.426-4.226 24.066-2.112 4.203-.303 8.787.604 12.607-.906h-1.527c-4.203,1.207-8.787.906-12.99,0-7.641-1.509-15.662-1.207-22.539,2.717v.604c.764-.604 1.91-.905 2.674-1.207 1.91-.906 3.82-.906 5.73-1.811 0,.301-.381.604-.381.604 .381.604 1.527.604 2.291.905 3.057.604 6.113.604 8.787,1.811 4.584,1.509 9.168,1.812 13.754.604 3.055-.604 7.258-1.208 8.021-3.924-1.146-.906-2.674,0-3.82-.303v.302z"/>
 <path d="m314.16,126.63v2.415c-4.203-1.51-4.203-5.132-5.35-8.15 .766-3.621.766-7.244 2.293-10.865-.764-1.51-1.91-3.019-3.057-4.528 3.439,2.415 4.584,5.735 4.967,9.056 0,1.811-.383,3.622-.383,5.434 .001,2.111.001,4.526 1.53,6.638"/>
 <path d="m313.777,126.63c.383.905.383,1.509.383,2.415-2.674-.604-3.82-3.32-4.584-5.434-1.529-4.527.764-8.753 1.145-13.281 0-.604.766,0 .766,0-.766-1.811-1.91-3.319-3.439-4.829 1.529,1.51 3.057,3.019 3.82,4.829 0,.906.764,1.51.764,2.416 .383,4.527-1.145,9.658 1.529,13.884-2.293-4.226-.766-8.753-1.146-13.28-.383-2.717-1.91-5.132-3.82-7.245-.383,0-.766-.604-1.527-.604 1.91,1.208 2.291,3.019 3.438,4.528-.383,0-.764,0-.764.301-.383,2.717-.764,5.434-1.529,8.15-.764,3.924.766,7.848 4.584,10.564 .383.302 1.146,0 1.146-.303-.002-.602.762-1.809-.766-2.111z"/>
 <path d="m309.576,125.423v2.112c-2.676-.905-3.439-3.018-4.203-4.829-.764-2.716-.383-5.131.381-7.848 .766-1.509 1.146-3.019.766-4.528h.764c-.383-.904-.764-1.811-1.529-2.716-.764-.604-.381-1.208-1.527-1.51 3.057,1.51 3.82,4.83 4.584,7.546 .383,1.51-.383,3.321-.764,4.83-.382,2.415.763,4.528 1.528,6.943"/>
 <path d="m309.193,125.423c.383.604.383,1.509.383,2.112-3.822-1.509-4.586-5.131-4.203-8.149 0-.905-.383-1.811 0-2.716 1.527-2.113 0-4.528 1.91-6.34-.383-1.509-1.529-3.018-2.674-4.226 1.527,1.812 3.057,3.925 3.818,6.037 .383,3.019-.762,5.735-.381,8.753 .381,1.51.764,3.019 1.529,4.528v-.604c-1.91-3.622-.383-7.545-.766-11.469-.383-2.717-1.91-5.735-4.584-7.547 1.146,1.51 2.293,3.019 3.057,4.527h-.764c-.383,3.623-1.91,6.943-1.529,10.263 .383,2.717 1.146,6.037 4.586,6.642 .765.301.765-1.509-.382-1.811z"/>
 <path d="m317.598,121.801c-.383.604 1.146,1.509 0,2.112h-.764l-1.91-1.509v-.604c-1.91-1.509-2.293-3.622-2.676-5.434 0-3.621.383-7.546 1.912-11.167-.766-1.51-1.912-3.019-3.057-4.528 2.291,1.812 3.82,3.924 4.584,6.339 1.146,3.019-.383,5.735 0,8.753 .383,1.208.383,2.113.764,3.32l1.147,2.718"/>
 <path d="m317.598,121.801v2.112c-4.203-1.509-5.73-6.036-4.967-9.356 .383-3.019.383-6.339 1.529-9.356l.381.301c-.764-1.811-1.91-3.319-3.438-4.829 2.291,1.51 3.438,3.32 4.201,5.433 0,.906.383,1.51.766,2.415 0,4.526-1.146,9.054 1.528,13.28-.383-1.509-1.146-3.32-1.527-4.829-.766-3.321.764-6.642-.383-9.961-.764-2.415-2.293-4.527-4.201-6.339h-.766c1.91,1.208 2.293,3.32 3.82,4.528-.764-.303-.764.301-1.146.603-.381.604 0,1.51 0,2.415-.764,3.622-1.908,7.244-.381,10.866 .764,1.811 2.291,4.226 4.584,5.131 .763-.604.382-1.509 0-2.414z"/>
 <path d="m376.049,18.874c1.146-.303 2.291-.906 3.82-.604v.604c-.383.905-1.146,1.509-2.293,2.113-3.438,2.112-6.494,3.319-10.697,3.924-3.82.604-7.641-.604-11.461-.303-1.527.303-3.438,1.207-4.584-.302-1.91,1.208-4.201,2.415-6.494,3.622 3.82-3.018 8.023-5.433 13.371-6.037 2.674-.301 5.73-.301 8.404-.604 3.44-.3 6.877-.904 9.934-2.413"/>
 <path d="m376.049,18.874c1.146-.303 2.291-.303 3.438-.604l.383.301c-3.057,3.925-8.404,6.037-14.135,6.34-4.586,0-9.17-.604-14.137,0-.381,0-.381-.303-.381-.604-2.674.604-4.203,2.415-6.877,3.622v.604c.764-1.207 1.91-2.112 3.438-2.717l.383-.604c3.438-1.811 6.494-3.018 10.314-3.32 3.439,0 6.877,0 10.314-.604 .766-.301 1.91-.301 2.676-.604 1.527-.604 3.438-.604 4.584-2.113-3.057,1.51-6.877,2.113-10.314,3.02-8.023-.303-17.191,1.207-21.777,6.941 2.293-1.509 4.967-2.717 6.877-4.226v.604c5.348.604 10.314,0 15.664,0 3.438-.303 6.494-1.208 9.551-2.717 1.527-.906 4.584-2.415 3.438-4.227-1.148.605-2.676.002-3.439.908z"/>
 <path d="m366.498,24.307c1.146-.302 2.291-.905 3.82-.604v.604c-.383.905-1.146,1.509-2.293,2.113-3.439,2.112-6.494,3.32-10.695,3.924-3.82.604-7.641-.604-11.463-.302-1.527.302-3.438,1.207-4.584-.302-1.91,1.207-4.201,2.415-6.494,3.622 3.82-3.019 8.021-5.434 13.371-6.037 2.674-.302 5.73-.302 8.404-.604 3.438-.301 6.877-.906 9.934-2.414"/>
 <path d="m366.498,24.307c1.146-.302 2.291-.302 3.438-.604l.383.302c-3.057,3.924-8.404,6.037-14.137,6.339-4.584,0-9.168-.604-14.135,0-.381,0-.381-.302-.381-.604-2.676.604-4.203,2.415-6.877,3.622v.604c.764-1.207 1.91-2.113 3.438-2.717l.383-.604c3.438-1.811 6.494-3.019 10.314-3.32 3.439,0 6.877,0 10.314-.604 .764-.302 1.91-.302 2.676-.604 1.527-.604 3.438-.604 4.584-2.113-3.057,1.51-6.877,2.113-10.316,3.019-8.021-.302-17.191,1.208-21.775,6.942 2.293-1.51 4.967-2.717 6.877-4.226v.604c5.35.604 10.314,0 15.664,0 3.438-.302 6.494-1.208 9.551-2.717 1.527-.905 4.584-2.415 3.438-4.226-1.148.605-2.675.001-3.439.907z"/>
 <path d="m360.768,29.74c1.527,0 2.674-.905 4.201-.604v.604c-2.674,4.226-8.787,6.036-14.516,6.942-5.73.604-11.463-.303-17.191,0-.383,0-1.529.301-1.529-.303l.383-.301c-2.676,1.207-5.348,2.716-7.641,4.527 5.348-6.037 15.664-7.244 24.449-7.848 4.203.002 8.023-1.206 11.844-3.017"/>
 <path d="m360.768,30.042 3.438-.906c0,0 .381.303.764.303-1.91,3.32-6.111,4.829-9.932,6.338h-1.146c-5.73,1.812-11.844-.301-17.955.906-1.146,0-2.674-.303-3.82,0v-.604c-3.057,1.207-5.73,2.716-8.023,4.829 1.527-1.208 3.057-2.415 4.586-3.32 2.674-2.112 6.111-3.019 9.549-3.924 4.967-.905 10.316.302 15.283-1.509h1.145c1.907-.604 4.2-1.208 6.111-2.113 .381-.302-.383-.302-.766-.302-6.111,2.716-12.605,3.019-19.1,3.622-6.496.302-12.607,2.717-16.811,7.244-.381.302 0,.302.383.302 2.293-2.113 4.965-3.019 7.258-4.829 0,.301 0,.904.383.904 5.73-.301 11.461,0 17.191,0 3.438-.301 6.494-.904 9.551-2.414 .764-.604 1.527-.905 2.674-1.51 1.146-.904 2.674-1.811 3.438-3.018 .383-.604 0-1.51-1.145-1.207-1.146.604-2.293.302-3.056,1.208z"/>
 <path d="m363.059,35.173c1.146-.604 2.676-.302 3.82-.604 0,.302.766.604.383.906-.383.604-1.146.604-1.527,1.207h-.766c-2.674,2.112-6.494,2.414-9.932,3.018-2.674.303-5.348-.301-8.023-.604-4.203-.905-8.023-1.207-12.225-1.811-.383,0-.383-.303-.383-.604-2.674.905-5.348,2.112-8.021,3.018 5.348-3.32 12.225-5.131 19.482-3.924 6.113.908 11.463.304 17.192-.602"/>
 <path d="m363.059,35.173c1.527.303 2.676-.604 4.203-.302-1.527,2.112-4.584,3.019-7.26,3.622-1.145.302-1.908.906-3.055.906-3.057,0-6.494.301-9.551-.303-4.203-1.207-8.023-1.509-12.225-1.811-.383,0-.383-.303-.383-.604-3.057.604-6.111,1.811-8.404,3.32 4.967-3.623 11.842-5.132 18.338-4.527 3.82.604 7.258,1.207 11.078.904 2.293-.301 4.967-.301 7.258-1.509-4.201,1.208-8.785,1.812-13.369.905-8.406-1.207-17.574-.604-23.305,4.227 1.146-.604 2.674-1.208 3.82-1.812 1.527-.604 3.057-.905 4.201-1.509-.381.604.766.604.766.905 2.674.302 5.348.302 8.021.905h1.529c7.258,2.415 16.809,1.51 22.539-3.018v-.906c-1.526-.298-2.674.305-4.201.607z"/>
 <path d="m363.441,40.003c1.527,0 2.674-.303 4.203.301-3.82,3.623-10.697,3.924-16.428,2.717s-10.697-3.018-16.428-4.226v-.604c-2.291.604-4.584.905-6.877,1.812-.764,0-1.145.604-1.91.301 6.877-3.018 15.664-3.621 22.922-.904 1.91.604 4.203.604 6.113.904 3.058.302 5.732-.301 8.405-.301"/>
 <path d="m363.059,40.003c1.527,0 3.057-.303 4.203.301v.604c-8.023,4.527-17.955,2.415-25.979-.905-1.145-.303-2.674-.604-4.201-.604-.764-.303-1.91-.303-2.293-.906l.383-.302c-3.057.302-6.113,1.208-9.17,2.112 2.293-.904 4.203-1.509 6.496-2.112 3.438-.604 6.875-.905 10.312-.302 3.439.905 6.879,1.811 10.316,2.414 3.055.303 6.111.303 9.168,0 .383-.301 1.146,0 1.146-.604-4.203.906-8.023.303-12.225,0-8.023-2.717-17.191-3.32-25.215.604-.383.303 0,.303.383.303 2.674-1.51 5.73-1.207 8.404-2.415v.905c5.73.906 10.697,2.717 16.045,4.227 3.82.904 8.023.604 11.844-.604 1.908-.303 4.584-.906 4.967-2.717-1.528.302-3.057-.905-4.584.001z"/>
 <path d="m358.475,43.624c1.146.303 3.057,0 3.439,1.208-4.584,2.415-10.316,1.812-14.9.302s-8.787-3.622-13.371-5.734c-.381-.303 0-.303.383-.303-3.057,0-5.73.303-8.406.906 4.586-1.812 9.934-1.812 14.9-.604 3.82.904 6.877,2.716 10.697,3.621 2.293.303 4.965.303 7.258.604"/>
 <path d="m358.475,43.624c1.146.604 2.674.303 3.439,1.208-4.584,2.112-10.316,2.112-15.281.302-4.203-1.811-8.023-3.924-12.607-5.434v-.604c-3.057-.302-5.73,0-8.406.604 0,0 0,.303.383.303 8.023-3.02 16.428,0 23.688,2.717 3.055.904 6.111.904 9.168.904-3.439-.604-7.26-.301-10.697-1.509-6.877-3.019-15.281-5.132-22.541-2.112 2.676-.303 5.35-.906 8.023-.906v.604c1.91,1.208 4.584,1.208 6.496,2.415 3.818,2.717 8.021,4.226 12.988,4.226 2.674.303 7.641.303 8.787-2.113-1.147-.302-2.294-.906-3.44-.605z"/>
 <path d="m357.33,48.756c1.145,0 1.527.604 2.672.604 0,.302.383.604.383.604-.383.604-1.146.604-1.91.905-4.965.604-9.551-.301-13.752-2.414 0,0-.383-.302-.383-.604-.383-.303-1.146-.303-1.529-.604-2.291-2.717-6.492-3.623-9.168-6.037-.381-.302 0-.302.383-.302-2.674-.604-5.73-.604-8.406-.302 7.26-1.51 14.52.604 20.248,4.527 3.439,2.114 7.642,2.415 11.462,3.623"/>
 <path d="m356.947,48.756c1.146,0 2.291.302 3.055.905v.604c-5.729,1.812-11.842.303-16.426-2.717-1.146-.904-2.293-1.811-3.438-2.716-1.912-1.509-4.967-2.112-6.496-3.924 .383,0 .383-.302.383-.302-2.674,0-5.73-.906-8.406,0 4.203-.604 8.787-.604 12.607.604 3.057,1.207 5.35,2.414 8.023,4.226 1.91,1.208 4.203,1.812 6.494,2.415 1.53.301 2.675.603 4.204.905l.383-.302c-4.967-.906-9.934-2.415-14.137-5.131-4.967-3.02-11.461-4.227-17.574-2.717 2.676,0 5.732.302 8.406,0-.383.302-.764.604-.383.905 4.203,2.415 7.26,4.829 11.461,6.942 4.203,2.414 10.697,4.527 15.281,1.509 .383-.302 0-.604-.383-.604-1.145,0-1.527-.905-2.672-.905l-.382.303z"/>
 <path d="m350.834,53.585c.383.303 1.146.604 1.529,1.207v.604c-2.674.604-5.35-.604-7.641-1.812-1.912-.905-3.057-2.414-4.203-3.622-1.91-2.716-3.438-5.433-5.348-8.149 .381.302.381-.604.764-.302-1.146-.302-1.91-.905-2.674-.905-1.146-.604-2.293-1.207-3.822-1.207 5.732.604 10.699,3.621 13.371,7.848 .766.604 1.146,1.509 1.912,2.112l3.055,2.415c1.147.604 2.293.906 3.057,1.811"/>
 <path d="m350.834,53.585c.764.303.764,1.207 1.529,1.509-3.82.906-8.023-1.206-10.316-3.622-2.674-3.018-3.82-6.036-6.494-9.055 0-.302 0-.604.383-.905-1.91-.905-4.203-1.812-6.496-2.112 3.822.301 7.26,1.811 9.934,3.924 3.82,3.621 6.494,8.148 11.844,10.262-1.527-1.207-3.057-1.811-4.584-2.717-1.529-1.509-3.057-3.018-4.203-4.829-2.674-3.622-7.258-6.036-12.607-6.942-.383,0-.383.303-.383.303 2.293.301 4.203,1.811 6.496,2.112-.764,0-1.146.604-.764.905 2.291,2.717 3.438,5.434 5.73,8.15 2.674,2.716 6.111,5.131 10.695,5.131 .383,0 .766-.302 1.146-.604-.764-.303-.764-1.51-1.91-1.51z"/>
 <path d="m355.037,82.26c1.145.604 1.145,1.208 1.91,2.112 0,.302 0,.604-.383.604-4.201.604-7.258-1.509-10.314-3.32-4.584-3.32-6.494-7.848-9.168-12.376-.383-1.207-1.529-2.414-2.293-3.621 0-.302-.383-.905.383-1.208-2.674-1.207-5.35-2.414-8.404-3.32-.383,0 0-.302.381-.302 5.73,1.509 10.314,3.622 14.135,7.244 2.293,2.415 3.057,5.132 5.35,7.546 2.673,2.717 5.346,4.527 8.403,6.641"/>
 <path d="m354.654,82.26c.383,1.208 2.293,1.51 1.91,2.717-10.314-.303-16.045-8.451-18.719-15.395-.764-1.509-2.674-3.018-3.057-4.828h.764c-1.91-2.113-5.73-2.416-8.404-3.925-.381,0-.381.302-.381.302 3.818.604 6.875,2.113 9.932,3.924 .383.303.764,0 1.146.303 3.438,2.716 5.348,6.036 8.021,9.658 2.676,3.019 5.35,5.735 9.551,7.244-.381,0-.764-.604-1.145-.905-3.057-1.509-4.584-3.924-7.26-5.433-3.82-6.942-9.932-13.584-20.246-15.093l-.383.302c3.055.906 6.113,1.812 8.787,3.623v-.303c-.383,0-.766.303-.766.303-.381,1.207 1.146,2.112 1.529,3.319 2.291,3.32 3.438,6.641 6.111,9.961 .764.604 1.146,1.509 1.91,2.112 3.439,2.717 8.023,5.735 12.99,4.83 0-.303 0-.604.383-.604-.766-.603-1.148-1.509-1.912-2.112h-.761z"/>
 <path d="m347.396,62.338c.381.604 1.146,1.208.764,1.812-.383,0-.764.604-1.527.302-2.676-.905-4.586-2.113-6.494-3.924-1.148-1.51-2.293-3.019-3.057-4.527-1.146-3.019-1.529-6.037-2.676-9.056 0-.604-.381-1.207 0-1.509h.766c-1.529-.905-2.674-2.716-4.967-3.32-.383-.302-.383-.604-1.146-.905 7.26,2.414 10.697,8.149 12.607,14.187 1.145,2.715 3.82,4.526 5.73,6.94"/>
 <path d="m347.396,62.338c.381.604.381,1.208.381,1.812-.381,0-.381,0-.381.302-10.314-2.414-11.461-12.073-12.607-19.016h.764c-1.527-1.812-4.201-2.716-6.113-4.226 3.439,1.811 6.496,3.924 8.787,6.641 1.912,3.018 1.912,6.037 4.203,9.055 1.91,2.112 2.674,4.226 5.348,5.433-1.527-1.509-3.438-3.018-4.584-4.829-3.82-6.037-5.348-14.186-14.516-16.299 1.527.905 2.674,1.811 4.201,2.414 1.146.303 1.146,1.51 2.293,1.812-.383,0-.383-.302-.766-.302l-.381.302c-.383.905.381,1.509.764,2.415 .764,3.018 1.146,5.734 2.293,8.753 1.527,3.32 4.584,6.037 8.404,7.546 1.146.302 2.291.905 3.057-.302-.766-.303.381-1.511-1.147-1.511z"/>
 <path d="m344.34,92.522c.383.905 1.527,1.509 1.527,2.415-1.527,0-3.057-.604-4.584-1.208-4.584-1.812-8.021-5.433-8.785-9.357 0-.301-.766-.603-.766-.904-.381-2.415-2.674-4.227-3.055-6.642 0-.301.381-.301.762-.301-1.908-.906-3.82-2.113-6.111-3.32h-.764c8.021,1.509 12.225,7.848 15.662,13.583 1.147,2.112 3.44,3.923 6.114,5.734"/>
 <path d="m343.957,92.522c.383.905 1.529,1.509 1.529,2.415-4.967-.303-9.168-3.623-11.08-6.943-2.291-3.622-3.82-7.243-5.348-11.168l.381-.301c-2.291-1.208-4.582-2.415-6.875-3.623 1.146.906 3.055.906 4.584,1.812 2.291,1.208 4.203,2.717 5.73,4.226 1.91,2.113 2.674,4.528 4.203,6.942 1.908,2.415 4.201,5.131 7.258,6.641-2.293-2.415-5.35-3.924-6.877-6.641-1.527-3.019-3.057-6.036-6.111-8.753-2.293-2.113-5.35-3.019-8.406-4.227h-.764c.764.604 1.91.906 2.676,1.208 .381.302 1.145.604 1.91.905s1.527,1.51 2.672,1.51h-.762v.905c1.527,3.019 3.055,6.037 4.584,9.055 1.91,4.226 6.494,8.753 12.605,8.452v-.604c-.762-.604-.38-1.811-1.909-1.811z"/>
 <path d="m343.193,70.187c0,.604.764,1.509 0,1.811-2.291.302-3.82-1.509-5.348-2.717-5.348-5.131-3.057-11.771-3.82-17.809h1.146c-1.146-.904-2.293-2.112-3.057-3.319-.383-.604-1.529-.604-1.91-1.509 3.82,2.112 6.877,5.433 8.021,9.055 .383,2.112.383,3.924.764,6.036 .383,1.812 1.148,3.623 1.912,5.132 .765,1.206 1.529,2.112 2.292,3.32"/>
 <path d="m342.811,69.884c.383.604.383,1.208.383,1.812 0,.302-.764.302-1.146.302-3.057-1.207-4.965-3.924-6.494-6.338-.381-.905-.764-2.113-.764-3.321-.764-3.621-.764-7.244-.383-10.866 0,.303.766-.604.766.303-.766-2.113-3.057-3.622-4.967-5.131 1.146,1.207 3.057,1.811 3.82,3.319l.764.302c1.146,1.812 2.674,3.32 3.057,5.132l1.145,7.244c.764,2.715 2.291,4.828 3.819,7.242 0,0 .383.303.766.303-2.293-2.717-4.203-6.037-4.586-9.357 0-1.812 0-3.32-.764-5.131-.381-.906-.764-1.811-1.145-2.717-1.529-2.414-3.82-4.527-6.496-6.338h-.764c2.293,1.207 3.439,3.319 5.35,4.828-.383,0-1.529-.301-1.529.303 .383,4.527-.381,9.356 1.529,13.583 1.527,3.019 3.818,6.64 8.021,6.64 .764,0 .383-1.207.383-1.811 0,0-.383-.303-.765-.303z"/>
 <path d="m339.373,75.922c0,.301.766.604.383,1.207-.383.302-.383.302-.383.604-4.584-.604-6.875-4.83-7.258-8.15-1.146-4.225 0-8.451 0-12.677h1.146c-1.146-.604-1.146-1.812-1.91-2.717-.383,0-.766-.301-.766-.301-.381-.906-1.527-1.208-1.908-2.113 3.82,2.414 6.875,6.339 7.258,10.263 0,2.414 0,4.829.383,7.243 .764,2.414 2.291,4.528 3.055,6.641"/>
 <path d="m339.373,75.922c-.383.604.766,1.509-.383,1.811-2.291.302-3.438-1.811-4.584-3.019-1.527-2.113-2.291-4.226-2.674-6.338 0-3.925 0-7.547.766-11.471 .381.302.764-.302.764.302-.764-2.113-2.676-3.924-4.584-5.433 1.145.905 2.291,1.811 3.438,2.716 1.91,2.415 3.438,5.132 3.438,8.15-.001,4.528 1.528,9.055 3.819,13.282-.383-2.717-2.674-4.83-2.674-7.546-.381-6.038-1.527-12.376-7.641-16.602h-.764c2.291,1.207 3.057,3.622 4.967,5.131-.383,0-.383-.302-.764-.302s-.766.302-.766.604c0,3.622-.764,7.244-.381,10.866 .381,3.924 3.055,8.149 7.639,9.961 .383,0 .766,0 .766-.302 .001-.603.765-1.207-.382-1.81z"/>
 <path d="m334.406,83.166c0,.604.383,1.811 0,1.811-1.908.905-3.055-1.207-4.201-2.113v-.604c-2.674-3.019-3.057-6.641-2.293-9.961 .766-3.319 1.146-6.64 1.91-9.961h1.146c-.764-2.112-2.291-3.924-3.82-5.734 .383.302 1.146.905 1.529,1.207 0,.303 0,.604.381.906 1.527.905 1.91,2.414 2.674,3.621l1.146,3.623c.764,4.829-1.527,9.658.764,14.186v.906c.383.302.383.905.764,1.207v.906"/>
 <path d="m334.406,83.166c.383.604-.381,1.508-.381,2.112h-.764c-5.35-3.32-6.494-8.753-4.967-13.885 .764-3.018.383-6.036 1.91-9.056 0,0 .764,0 .764.303 0-2.113-2.291-3.623-3.438-5.735 0-.302-.383-.302-.764-.302 3.055,2.113 4.584,5.131 5.73,8.15 1.145,3.622-.766,6.941 0,10.563 0,2.717.381,5.434 2.291,7.849-1.527-4.528-3.438-9.056-1.527-13.584-.383-4.527-1.146-10.262-6.494-12.979 1.91,1.811 2.672,3.924 4.201,5.734-.383,0-.383-.301-.764-.301s-.766.301-.766.604c-.762,1.207 0,2.414-.381,3.622-1.146,3.621-1.91,7.243-1.527,10.866 .381,3.018 2.291,5.734 4.967,7.848 .381.302 1.145.905 1.908.604 .766-.604.383-1.509.383-2.414h-.381v.001z"/>
 <path d="m329.439,90.711c0,.604.383,1.812-.381,2.113-1.146.302-1.91-.906-2.674-1.812-.383-.302-.766-.302-.766-.604-1.908-3.621-2.674-7.848-1.145-11.47 1.527-3.018 1.91-6.339 3.82-9.357 .383.302.764-.302.764.302 0-2.414-1.91-4.225-2.674-6.338 4.584,4.83 4.967,11.47 2.674,17.205-1.145,3.321.382,6.641.382,9.961"/>
 <path d="m329.439,90.711c-.381.604-.381,2.113-1.145,1.812-3.82-1.208-4.203-5.132-4.203-8.15-.764-5.131 2.293-9.658 4.203-14.488 0,0 .764,0 1.145.303-.381-2.415-1.527-4.527-3.055-6.641 2.674,3.622 4.584,7.848 3.82,12.073-1.146,5.132-2.674,10.263-.383,15.092-.764-2.414-1.145-4.527-.764-6.941 0-4.528 2.293-9.056 1.146-13.886-.766-2.414-1.527-5.13-4.203-6.338l3.438,6.338c-.762-.604-1.527-.302-1.908.303-.764,2.112-.764,4.226-1.912,6.339-3.055,5.131-3.055,12.375 2.676,16.299h.764c.764-.304 1.528-1.512.381-2.115z"/>
 <path d="m327.148,98.258c0,.604.383,1.811-.381,1.811-3.439.302-4.967-3.32-6.113-5.734-.764-2.113-1.146-4.528-.764-6.943 1.145-3.319 1.145-6.64 2.291-9.96h1.146c-1.146-1.812-1.91-3.622-3.82-5.132v-.604c.764.905 1.91,1.811 2.674,2.717v.604c1.91,1.811 2.676,3.924 2.676,6.037 .762,5.734-.765,11.77 2.291,17.204"/>
 <path d="m326.768,98.258c-.383.604.381,1.811-.383,1.811-3.057,0-4.203-3.019-5.35-5.131-.764-1.812-1.527-3.623-1.145-5.735 .764-3.924 1.145-7.848 2.674-11.771 0,0 .764,0 .764.302-.383-2.113-2.674-3.622-3.438-5.735-.383.302-.383-.604-.764-.302 1.145.905 1.908,1.811 2.674,3.019l.764.302c.381.604.764,1.207 1.146,2.113 .764,1.811 1.146,3.622 1.527,5.433s-.381,3.924-.764,5.735c-.383,1.509.383,3.018.764,4.527 .381,1.811.381,3.924 1.91,5.434-1.146-3.32-2.674-6.34-2.291-9.659 .381-2.113 1.145-3.925.762-6.037-.762-3.924-2.291-8.451-6.492-10.866 1.145,1.811 3.055,3.924 4.201,5.735-.383,0-.383-.302-.764-.302s-.764.302-.764.604c-.766,3.019-.766,6.037-1.529,9.056-1.527,5.13 0,11.167 6.113,13.884 0,0 .383-.302.764-.302-.379-.606.384-1.512-.379-2.115z"/>
 <path d="m326.385,104.294c0,.604.764,1.509.383,2.112-1.91.906-3.822-1.206-5.35-2.414-1.527-1.509-2.674-3.019-3.438-4.829-.766-1.51-.766-3.32-1.146-4.829 0-.604 0-1.208.381-1.812 0-2.113 0-3.924-.764-6.037 0-.604-.381-1.207.383-1.812h.764c-1.146-2.112-3.057-3.621-5.35-5.131h.766l4.201,3.32c1.912,1.811 3.057,3.925 3.82,6.339 .383,2.112.766,3.924.766,6.036 .381,1.812 1.145,3.623 1.91,5.132 .764,1.209 1.527,2.717 2.674,3.925"/>
 <path d="m326.002,104.294c.383.604.383,1.509.383,2.112 0,.303-.383.303-.766.303-.381-.303-.762-.303-1.527-.906-1.91-.905-3.82-2.414-4.584-4.527 0-.302-.381-.302-.764-.604-.764-1.207-1.146-2.717-1.146-4.226-.764-3.924-.764-7.848-.764-11.772 .381,0 .764,0 1.146.303-1.529-1.811-3.057-3.924-5.35-5.434 3.82,2.113 6.496,5.131 8.023,8.754 .764,3.018.764,6.037 1.527,9.055 .765,2.415 2.677,4.528 3.822,6.942 0,0 .383.302.766.302-1.91-2.716-3.822-5.433-4.586-8.451-.381-3.622-.764-7.244-2.674-10.564-1.91-2.414-4.203-4.829-7.26-6.339v.604c2.676,1.207 3.822,3.018 5.35,4.828-.383,0-.764-.302-.764-.302-1.146,1.208-.383,2.416-.383,3.622 .383,2.415 0,5.132.383,7.547 .381,2.717 1.527,5.131 3.438,7.545 1.529,1.51 3.439,3.623 6.496,3.623 0-.303 0-.604.381-.604-.381-.604-.381-.904-.381-1.509 0,0-.383-.302-.766-.302z"/>
 <path d="m321.418,105.501c.764.604.383,1.208.383,1.812-3.82,0-5.35-3.32-6.496-5.433-1.91-3.925-1.145-8.15-1.527-12.074h.764c-1.146-1.509-2.293-3.018-4.201-3.924 4.201,1.811 6.494,5.131 6.875,8.753 .764,3.924 1.911,7.547 4.202,10.866"/>
 <path d="m321.418,105.501v1.812h-.764c-3.057-1.51-5.35-3.924-5.73-6.641-1.146-3.622-1.529-7.244-.764-10.866 0,0 .764,0 .764.302-.764-1.811-2.676-3.018-4.203-4.226 5.35,3.019 7.26,8.149 7.26,13.281 0,.604.764,1.207.764,2.112 .383,1.509 1.91,2.415 2.291,3.925 0,.301.383.301.766.301-3.439-3.621-3.439-8.149-4.586-12.375-1.145-3.019-3.82-5.735-6.875-7.546 1.146,1.51 3.055,2.717 4.201,4.226-.381,0-1.146-.302-1.146.604 .383,3.32 0,6.339.766,9.659 1.145,3.018 2.674,5.734 6.111,7.244 .383,0 1.529.302 1.91-.302-1.148-.302.762-1.51-.765-1.51z"/>
 <path d="m319.891,110.029c.764.604.381,1.207.381,1.811-3.82,0-5.348-3.32-6.494-5.434-1.91-3.923-1.146-8.148-1.529-12.072h.766c-1.146-1.51-2.293-3.02-4.203-3.925 4.203,1.812 6.494,5.132 6.877,8.754 .762,3.923 1.909,7.546 4.202,10.866"/>
 <path d="m319.891,110.029v1.811h-.764c-3.057-1.51-5.35-3.924-5.732-6.64-1.146-3.622-1.527-7.245-.764-10.866 0,0 .764,0 .764.301-.764-1.811-2.674-3.018-4.201-4.226 5.348,3.019 7.258,8.149 7.258,13.281 0,.604.764,1.207.764,2.112 .383,1.51 1.912,2.415 2.293,3.924 0,.303.383.303.764.303-3.438-3.623-3.438-8.149-4.584-12.376-1.146-3.019-3.82-5.735-6.877-7.546 1.146,1.51 3.057,2.717 4.203,4.227-.383,0-1.146-.303-1.146.604 .381,3.32 0,6.338.764,9.658 1.146,3.019 2.674,5.734 6.113,7.244 .383,0 1.527.302 1.91-.302-1.148-.302.762-1.509-.765-1.509z"/>
 <path d="m313.777,113.047v1.51c-3.057,0-4.201-2.717-4.967-4.527-1.145-2.717-.764-5.735.383-8.451 .383-1.51 0-3.32.764-4.83h.764c-1.145-1.51-1.527-3.019-3.055-4.226 1.527.302 1.527,1.509 2.674,2.415 .764.604.381,1.509 1.146,2.112 .381.905.762,1.812.762,2.717 0,4.527-.762,9.054 1.529,13.28"/>
 <path d="m313.395,113.047c-.381.604.383,1.51-.381,1.208-1.91-.302-2.674-1.812-3.82-3.32v-.905c0-.604-.383-.906-.766-1.51-.762-3.622.766-6.941 1.148-10.564 .381-.302 0-1.207.764-1.207 0,0 .381.302.764.302-.764-1.207-1.146-2.112-1.91-3.32 0,0-.383-.302-.766-.302 .766-.604-.762-.604-.762-1.207 2.291,2.113 4.201,4.527 4.582,7.244 .383,4.226-1.145,8.451 1.146,12.375 .001.301.001.905.001,1.206 .766.303.383-.301.383-.604-.383-1.509-1.146-2.717-1.529-3.924 0-5.434 1.529-12.375-4.965-16.299 1.527,1.207 2.293,3.018 3.438,4.527h-.764c-.764.302-.381,1.207-.764,1.811s0,1.208 0,1.812c-.766,3.32-1.91,6.641-.383,9.96 .383.604.766,1.208 1.146,2.113 .764,1.207 1.91,2.113 3.438,2.113 .766.302 0-.906.383-1.51h-.383v.001z"/>
 <path d="m311.486,116.065v1.51c-3.059,0-4.203-2.717-4.967-4.528-1.146-2.717-.766-5.734.381-8.451 .383-1.51 0-3.32.766-4.829h.762c-1.145-1.509-1.527-3.019-3.055-4.226 1.527.302 1.527,1.509 2.674,2.414 .764.604.381,1.51 1.146,2.113 .383.905.764,1.812.764,2.716 0,4.528-.764,9.056 1.529,13.281"/>
 <path d="m311.104,116.065c-.383.604.383,1.51-.383,1.208-1.91-.302-2.674-1.812-3.82-3.32v-.906c0-.604-.381-.905-.764-1.509-.764-3.622.764-6.942 1.146-10.564 .383-.302 0-1.207.764-1.207 0,0 .381.302.764.302-.764-1.207-1.145-2.113-1.91-3.32 0,0-.381-.302-.764-.302 .764-.604-.764-.604-.764-1.208 2.293,2.113 4.203,4.528 4.584,7.245 .383,4.226-1.146,8.451 1.146,12.375 .001.301.001.905.001,1.206 .764.302.383-.302.383-.604-.383-1.509-1.146-2.716-1.529-3.924 0-5.434 1.529-12.375-4.967-16.3 1.529,1.208 2.293,3.02 3.438,4.528h-.762c-.766.302-.383,1.207-.766,1.812s0,1.206 0,1.811c-.764,3.32-1.91,6.641-.381,9.961 .381.604.764,1.207 1.146,2.112 .762,1.208 1.91,2.113 3.438,2.113 .764.302 0-.905.383-1.51h-.383v.001z"/>
 <path d="m304.605,110.46c-.764-5.131-1.146-10.263-.383-15.394 .766-4.527 1.529-9.055 3.438-13.582 1.912-4.227 3.439-8.452 6.877-12.376 .383-.302 0-.905.383-1.208 5.73-6.941 8.023-13.884 9.168-21.731 .764-5.131-1.91-10.263.764-15.092 1.529-3.32 6.113-5.132 10.316-6.641 .764-.303 1.527-.303 2.291,0 4.203,1.811 3.82,6.641 4.586,9.961 .381,3.018-.383,6.338-.766,9.356l-1.145,4.528c-2.293,5.734-5.35,10.865-10.316,15.694-.381.303 0,.604-.381.906-5.35,4.527-10.314,8.451-14.518,13.582-4.584,6.037-7.641,11.771-9.168,18.715-.763,4.529-1.528,8.755-1.146,13.282z"/>
 <path d="m304.605,110.46c-.764-5.131-1.146-10.263-.383-15.394 .766-4.527 1.529-9.055 3.438-13.582 1.912-4.227 3.439-8.452 6.877-12.376 .383-.302 0-.905.383-1.208 5.73-6.941 8.023-13.884 9.168-21.731 .764-5.131-1.91-10.263.764-15.092 1.529-3.32 6.113-5.132 10.316-6.641 .764-.303 1.527-.303 2.291,0 4.203,1.811 3.82,6.641 4.586,9.961 .381,3.018-.383,6.338-.766,9.356l-1.145,4.528c-2.293,5.734-5.35,10.865-10.316,15.694-.381.303 0,.604-.381.906-5.35,4.527-10.314,8.451-14.518,13.582-4.584,6.037-7.641,11.771-9.168,18.715-.763,4.529-1.528,8.755-1.146,13.282z"/>
 <path d="m234.57,108.498c-.766.604-.383,1.51-.383,2.113 4.967-.303 8.023-4.83 8.787-8.452 1.527-4.527.764-9.055 1.146-13.582h-1.146c1.146-.905 1.91-2.113 2.674-3.019 .766-.604 1.91-1.208 2.674-2.112-1.527.904-3.057,1.811-4.201,3.018-2.293,2.415-3.82,4.829-4.586,7.546-.381,3.924-.764,8.149-3.438,11.47-.383.604-.764,1.51-1.527,2.415v.603"/>
 <path d="m234.57,108.498v2.113c2.674,0 4.584-2.113 6.111-3.924 1.529-2.113 2.676-4.528 3.057-6.942 .383-3.622 0-6.942.383-10.564-.764.302 0-.905-.764-.604-.383,0-.383.302-.766.302 1.91-1.812 3.439-3.622 5.35-5.433h.764c-1.527.603-2.674,1.509-3.82,2.414-.764.604-1.146,1.509-1.91,2.112-1.91,2.113-3.057,4.528-3.439,6.943-.381,4.225-1.527,8.451-4.201,12.073-.001.605-.384,1.208-.765,1.51-.383-.302.764-.604 0-.905 2.674-3.622 4.201-7.848 4.584-12.073 .381-4.527 3.438-8.452 7.641-11.471 .383-.302 1.146-.603 1.91-.603-2.291,1.509-3.439,3.621-5.73,5.131h1.146c.764.905.381,1.811.381,2.716-.764,3.32 0,6.339-.764,9.659-.381,1.811-1.146,3.622-2.293,5.132-.764.604-1.145,1.207-1.91,2.112-1.145,1.208-3.055,2.717-4.965,2.717-1.146-.302-1.146-1.811 0-2.415z"/>
 <path d="m174.59,31.228c-1.146,0-2.674.302-3.438,1.207 2.292,2.415 6.495,1.51 9.933,1.208 4.585-.302 8.787-2.113 12.226-4.829 1.91-1.208 4.201-2.113 6.493-3.02 .382-.301 1.911-.604 1.528-1.509h-.381c3.056-.302 6.112-.302 9.168.302-8.022-2.717-16.427.303-23.686,3.924-3.82,1.811-8.021,1.811-11.843,2.717"/>
 <path d="m174.59,31.228c-1.146,0-2.292.302-3.056.906v.604c4.585,2.414 9.933,1.207 14.899,0 .382,0 .382-.604.765-.604 1.527-.303 2.292-.906 3.438-1.812 .382-.302.764,0 1.146-.302 0-.303.383-.303.383-.604 3.057-1.812 6.112-3.32 9.168-4.83-.381,0-.381-.604-.381-.604 3.056-.302 6.112,0 9.168.302-5.729-.604-11.843-1.207-17.191,1.208-5.73,2.718-11.462,5.434-18.339,5.736l-.382-.302c6.877-.302 12.607-3.019 18.72-5.433 5.349-2.415 11.843-2.717 17.574-.906-3.058-.302-6.495-.302-9.551-.302 .381,0 .381.302.764.302-.764.906-1.911,1.207-2.675,1.812-4.201,1.509-6.876,3.924-10.696,5.735-4.967,2.112-12.225,3.621-17.191.604v-.604c.764-.604 1.91-.906 3.056-1.208l.381.302z"/>
 <path d="m176.84,13.651c-1.312-.07-3.83-.188-5.367-.234-6.367-.257-6.625.012-6.334.373 .797.295 1.683.627 2.658.997 2.237.58 5.182,1.158 7.651,1.836 1.893.456 4.825.749 7.238,1.123 6.83,1.252 14.822,2.089 22.549,2.814 7.832.911 14.252,2.895 21.563,3.746l.144-.543c2.247.907 4.555,2.144 7.627,2.635v-.604c-2.281-2.129-4.934-3.649-7.285-5.346l-1.041-.117c-4.379-2.791-9.611-4.111-14.854-4.832-5.809-.637-13.58-.594-19.022-1.217-3.888-.309-5.363-.524-8.227-.562-1.068-.01-.765,0-2.247-.023-2.221-.034-3.283-.041-5.053-.046"/>
 <path d="m176.84,13.651c-1.312-.07-3.83-.188-5.367-.234-6.367-.257-6.625.012-6.334.373 .797.295 1.683.627 2.658.997 2.237.58 5.182,1.158 7.651,1.836 1.893.456 4.825.749 7.238,1.123 6.83,1.252 14.822,2.089 22.549,2.814 7.832.911 14.252,2.895 21.563,3.746l.144-.543c2.247.907 4.555,2.144 7.627,2.635v-.604c-2.281-2.129-4.934-3.649-7.285-5.346l-1.041-.117c-4.379-2.791-9.611-4.111-14.854-4.832-5.809-.637-13.58-.594-19.022-1.217-3.888-.309-5.363-.524-8.227-.562-1.068-.01-.765,0-2.247-.023-2.221-.034-3.283-.041-5.053-.046"/>
 <path d="m145.174,17.343c-2.674-.302-5.348-1.207-8.021-.905-.765,0 0,.604 0,.604 1.146,1.208 3.055,2.113 4.966,2.415 .382,0 .382.604.764.604 10.315,3.32 22.158,3.622 32.473.604 6.494-2.113 12.989-2.414 19.866-3.018v-.604c5.349.905 9.932,2.717 14.898,4.528-6.112-3.623-13.753-5.132-21.394-6.037-8.404-.906-16.045,2.113-24.45,3.018-6.494.602-12.989-.303-19.102-1.209"/>
 <path d="m145.174,17.343c-2.674-.302-5.348-1.207-8.021-.905-.765,0 0,.604 0,.604 1.146,1.208 3.055,2.113 4.966,2.415 .382,0 .382.604.764.604 10.315,3.32 22.158,3.622 32.473.604 6.494-2.113 12.989-2.414 19.866-3.018v-.604c5.349.905 9.932,2.717 14.898,4.528-6.112-3.623-13.753-5.132-21.394-6.037-8.404-.906-16.045,2.113-24.45,3.018-6.494.602-12.989-.303-19.102-1.209"/>
 <path d="m142.119,22.776c-1.911-.604-3.438,0-5.349-.604-1.146-.303-1.909,0-3.056.302 2.292,1.811 4.966,2.716 8.021,3.622 7.641,1.811 16.046,2.113 23.687,0 8.404-2.415 16.045-5.434 25.214-6.339 .382-.302 1.146-.302 1.528-.604s0-.302-.383-.302c1.911,0 3.439.604 5.35.604 .764,0 1.146.604 1.909.604 3.057.302 5.35,1.811 8.404,2.113-12.605-5.434-28.27-5.735-41.259-.604-8.02,1.51-16.044,1.812-24.066,1.208"/>
 <path d="m142.119,22.776c-1.911-.604-3.438,0-5.349-.604-1.146-.303-1.909,0-3.056.302 2.292,1.811 4.966,2.716 8.021,3.622 7.641,1.811 16.046,2.113 23.687,0 8.404-2.415 16.045-5.434 25.214-6.339 .382-.302 1.146-.302 1.528-.604s0-.302-.383-.302c1.911,0 3.439.604 5.35.604 .764,0 1.146.604 1.909.604 3.057.302 5.35,1.811 8.404,2.113-12.605-5.434-28.27-5.735-41.259-.604-8.02,1.51-16.044,1.812-24.066,1.208"/>
 <path d="m154.726,28.813c-2.674,0-5.35-.303-8.023.301v.604c1.146.303 1.528.906 2.674.906 .383.302.765.302 1.146.604 6.494,1.51 13.371,2.113 19.866.604h1.527s1.146-.604 1.528-.604c2.292,0 4.203-.905 6.112-1.811 8.022-3.019 15.282-6.339 24.068-8.15v-.604c5.349-.302 10.697.906 16.045,2.113-6.494-2.415-13.753-3.019-21.012-2.717-9.168.604-16.81,4.226-25.214,6.942-6.11,1.51-12.223,1.812-18.717,1.812"/>
 <path d="m154.726,28.813c-2.674,0-5.35-.303-8.023.301v.604c1.146.303 1.528.906 2.674.906 .383.302.765.302 1.146.604 6.494,1.51 13.371,2.113 19.866.604h1.527s1.146-.604 1.528-.604c2.292,0 4.203-.905 6.112-1.811 8.022-3.019 15.282-6.339 24.068-8.15v-.604c5.349-.302 10.697.906 16.045,2.113-6.494-2.415-13.753-3.019-21.012-2.717-9.168.604-16.81,4.226-25.214,6.942-6.11,1.51-12.223,1.812-18.717,1.812"/>
 <path d="m174.973,34.246c-.765.302-2.292.302-3.057.905v.604c6.113,3.32 13.754,1.207 19.483-1.811l.382-.604c1.529-.604 2.675-1.51 3.821-2.415 2.292-.905 4.583-1.812 6.494-3.019 .382-.302 0-.604-.382-.604 3.056,0 6.112,0 9.169.302-4.967-1.509-9.933-1.207-14.899,0-3.82,1.208-7.259,3.32-11.079,4.829-3.056.908-6.493,1.511-9.932,1.813"/>
 <path d="m175.355,34.246c-1.146.604-3.057.604-3.057,1.509-.382.906 1.528.906 2.675.906 3.057.604 6.112.604 9.169,0 1.91-.604 3.82-1.207 5.73-2.113 2.292-1.207 4.202-3.019 6.876-3.924l.383-.604c1.527-.604 3.438-.906 4.584-2.113-.383-.302.382-.604-.383-.604 3.058-.604 6.495,0 9.552,0 0,0 0,.302-.382.302-5.35-1.207-11.079-1.207-16.046.604-3.438,1.508-6.494,3.319-9.933,4.527-3.057.905-6.112,1.207-9.169,1.811l-.382-.302c1.528-.302 2.675-.604 4.202-.604 3.438-.604 6.112-1.208 9.169-2.717 6.877-3.622 14.899-5.735 22.54-3.32-3.057-.302-6.113-.302-9.169-.302 .382,0 .382.302.382.604-.765.906-1.911,1.51-3.438,1.811-3.438,1.51-6.112,3.925-9.551,5.434-5.348,2.113-12.988,3.622-17.573.303 .764-.906 2.674-.906 3.821-1.208z"/>
 <path d="m185.67,38.17c-.765.302-.765.302-1.146.905s.764.303.764.906c3.438.301 6.494-.604 9.552-2.113 1.146-.906 2.292-1.207 2.673-2.414l.765-.303c1.527-2.113 3.82-3.622 5.73-5.734l-.764-.604 3.438-.906c1.146,0 1.909-.302 3.056-.302-6.494-.302-11.843,3.32-16.045,6.942-2.293,1.511-5.349,2.718-8.023,3.623"/>
 <path d="m186.052,38.17c-.382.302-1.528,1.208-1.146,1.208 8.787,2.414 14.135-5.132 18.72-9.961 .382-.604-1.146-.303-.764-.604 2.291-.604 4.583-1.208 7.258-1.208-3.82,0-8.022.905-11.079,2.717-4.201,3.019-8.022,6.339-13.37,7.848 2.292-1.208 5.348-1.812 7.258-3.32 4.584-3.924 9.934-7.848 17.191-7.244-.764.905-1.91,0-2.675.302-1.527.303-2.674.604-4.201,1.207v-.301c.764,0 1.146.604.764.904-.764.604-1.146,1.208-2.292,1.812-2.292,2.113-4.203,4.528-6.876,6.339-3.058,1.51-6.877,3.622-10.315,1.51v-.604c.381-.303.763-.605 1.527-.605z"/>
 <path d="m193.693,40.282c-.765.604-1.146,1.208-.765,1.208 1.528.604 3.438.302 4.584-.604h.765c2.293-1.208 4.202-2.717 6.113-4.528 2.674-3.32 3.055-6.641 5.729-9.96v-.905h-1.146c2.292-1.208 4.202-2.415 6.876-3.32-3.056.604-5.348,1.811-8.022,3.32-2.292,1.509-3.82,3.32-4.966,5.433-.383,1.509-1.529,2.717-2.292,3.924l-.766.302c-1.526,2.113-4.2,3.32-6.11,5.13"/>
 <path d="m193.693,40.282c0,.303-.765.906-.382,1.208 1.528.905 3.438,0 4.584-.604 .382-.302 1.146-.604 1.909-.905 2.675-1.208 3.821-3.02 5.349-5.132 1.529-2.415 2.292-5.132 4.203-7.546 .382-.604.764-1.207.382-1.811h-1.146c2.293-1.208 4.585-2.415 6.877-3.32-6.494,1.811-11.843,6.037-13.753,11.47-2.675,2.415-4.967,5.131-8.404,6.64 1.91-1.509 4.201-2.414 5.729-4.225 4.967-5.735 8.023-12.979 17.191-13.885-2.674.905-4.966,1.811-7.258,3.32 .382,0 .764-.303 1.146-.303l.383.303c-.765,2.717-3.058,4.829-4.203,7.545-1.909,4.227-7.259,9.961-13.753,8.15-.001.001-.001-.905 1.146-.905z"/>
 <path d="m197.131,41.49c0,.302-.765.604-.765.905 2.292,1.207 4.585-.604 6.495-1.509 .382-.302.382-.604 1.146-.905 0,0 .383-.303.383-.604 .381,0 .763-.303.763-.303 1.529-2.717 3.438-5.433 4.967-8.451h-.764c1.528-1.207 3.438-1.811 5.348-2.414-3.055.604-5.729,1.811-7.64,3.621-3.439,3.624-5.731,7.245-9.933,9.66"/>
 <path d="m197.131,41.49c0,.302-.383.905-.383,1.207 3.056.302 6.113-1.509 8.022-3.319 2.293-2.416 3.057-5.132 4.967-7.849 0-.302.765-.604 0-.905h-.764c1.91-.906 3.438-2.113 5.729-2.414-3.438.604-6.112,2.112-8.404,4.225-3.056,3.32-4.967,7.244-9.551,9.056 1.146-.905 2.292-1.509 3.438-2.112 1.529-1.208 3.058-2.416 3.821-3.924 .764-1.812 2.292-3.32 3.82-4.528s3.821-1.812 5.73-2.716c.382.604 1.146-.604 1.146.301-1.909.303-3.438,1.207-5.348,2.113h1.146c-3.058,4.83-5.731,12.073-14.136,12.073 .003-.302-.379-1.208.767-1.208z"/>
 <path d="m202.097,46.319c-.382.303-.382.906-.765,1.207 2.675,1.208 4.967-1.207 7.259-2.112l1.146-.905c3.438-3.32 4.202-7.547 6.112-11.168 0-.303-.382-.303-.764-.303 1.527-1.207 3.82-2.112 5.73-3.018-3.821.905-6.877,3.018-9.551,5.434-1.91,1.811-1.91,4.225-3.821,6.338-.381,0-.763.302-.763.302-1.144,1.811-3.055,2.717-4.583,4.225"/>
 <path d="m202.479,46.319c-.764.303-.764.906-.764,1.51 5.349-.303 9.551-3.924 11.079-7.848 0-.604.382-1.51.764-2.113v-.906c.382-.904 1.146-1.207 1.146-2.112 0-.302.765-.302.765-.604s0-.905 0-1.208h-.765c.765-.604 1.528-.904 2.292-1.509 .766-.302 1.146-.604 1.911-.905 .764,0 1.146-.604 1.91-.604-1.146.302-1.91.604-3.056.905-.766.604-1.529.905-2.675,1.509-3.056,2.113-4.584,4.83-6.112,7.547-1.529,2.414-4.203,4.527-6.877,6.338 1.91-2.113 4.585-3.622 6.112-6.037 .765-1.509 1.528-3.32 3.057-4.828 2.674-2.416 5.348-4.83 9.551-5.434-1.91,1.207-3.821,1.811-5.73,3.018 .382,0 .764,0 .764.303v.905c-1.527.905-1.527,2.415-1.91,3.622-1.909,4.527-6.112,10.564-12.607,9.658-.382,0-.001-1.207 1.145-1.207z"/>
 <path d="m247.178,124.797c-.383.906-.764,1.812-.383,2.717h.764c5.73-3.32 7.26-9.659 5.348-14.789-.764-2.717 0-5.735-1.145-8.452h-.766c1.146-2.113 2.674-3.924 4.203-5.734-4.203,3.019-6.113,7.243-6.113,11.47-.381,3.018.383,6.036 0,9.055-.381,1.809-1.145,3.922-1.908,5.733"/>
 <path d="m247.178,124.797c.381.906-.383,1.51-.383,2.416 .383,0 .383,0 .383.301 4.965-2.112 6.875-7.546 6.111-11.771-.383-3.622-.764-7.244-1.527-11.168 0-.302-.383-.302-.766-.302v.302c.383-1.51 1.146-3.018 2.293-4.226 .764-.302 1.146-1.208 1.529-1.811 .381-.302.381,0 .381.302-3.82,2.717-5.348,6.036-6.113,9.96-.381,3.019.766,6.037.383,9.055-.383,2.113-1.527,4.227-1.91,6.642 0,.301-.381.301-.764.301 1.146-2.112 1.527-4.226 2.291-6.64 .766-3.924-1.527-7.546 0-11.168 .383-.905.766-1.812 1.146-2.717 1.146-2.113 2.674-4.226 4.586-5.734h.764c-1.912,1.811-3.057,3.923-4.586,5.734h1.146c.764,2.717.383,5.132 1.146,7.848 1.529,5.433.764,11.772-5.348,15.394-.764.303-2.293-.301-1.527-.905 1.146-.605-1.147-1.51.765-1.813z"/>
 <path d="m200.57,59.601c-.766.302-.766.302-1.146.905s.763.302.763.906c3.439.301 6.496-.604 9.552-2.113 1.146-.906 2.293-1.207 2.674-2.415l.765-.302c1.527-2.112 3.819-3.622 5.73-5.735l-.765-.604 3.439-.905c1.146,0 1.909-.302 3.055-.302-6.494-.302-11.842,3.32-16.045,6.942-2.293,1.51-5.348,2.717-8.022,3.623"/>
 <path d="m200.952,59.601c-.382.302-1.528,1.207-1.147,1.207 8.787,2.415 14.136-5.131 18.72-9.961 .383-.604-1.146-.301-.763-.604 2.292-.604 4.583-1.207 7.258-1.207-3.82,0-8.023.905-11.079,2.717-4.202,3.019-8.022,6.339-13.37,7.848 2.292-1.208 5.348-1.812 7.258-3.32 4.584-3.924 9.934-7.848 17.191-7.244-.764.905-1.91,0-2.675.302-1.527.302-2.674.604-4.202,1.208v-.303c.765,0 1.146.604.765.906-.765.604-1.146,1.207-2.293,1.811-2.291,2.112-4.202,4.528-6.876,6.339-3.056,1.509-6.876,3.622-10.314,1.509v-.604c.379-.303.761-.604 1.527-.604z"/>
 <path d="m242.211,119.666c-.766.905-.383,2.113-.383,3.019h.764c6.494-3.924 7.641-10.866 5.35-16.903-.764-2.414-.383-4.829-.764-7.545h-.764c1.145-2.113 2.291-4.227 4.201-6.037l-2.293,1.811v.604c-2.674,2.113-3.438,4.829-3.82,7.546-1.145,4.226.383,7.849-.381,12.074-.764,1.809-1.146,3.619-1.91,5.431"/>
 <path d="m242.211,119.666c.381,1.207-.766,2.113 0,3.019 5.73-3.019 7.258-9.055 6.494-14.187-.383-1.207-.764-2.717-1.146-3.924-.381-2.113 0-4.226-.764-6.338h-.764c1.527-2.113 2.674-4.227 4.584-6.037-1.91,2.113-4.201,3.924-5.35,6.641v.905c-2.291,4.226 0,8.753-.764,13.28-.381,2.113-1.527,4.226-1.91,6.339 0,.302-.381.302-.764.302 1.146-2.113 1.91-4.226 2.293-6.338 .381-3.924-.764-7.849 0-11.771 .764-3.623 3.057-6.641 6.111-9.357h.764c-1.91,1.811-3.438,3.924-4.582,6.037l.381-.303c.383,0 .764.303.764.604 0,2.716.383,5.433 1.146,8.149 1.527,5.734.381,12.677-6.494,15.997-.766.302 0-.604-.766-.604 .384-.904.001-1.81.767-2.414z"/>
 <path d="m237.627,112.725c.381.905-1.146,1.811 0,2.716 .381.302 1.145-.302 1.527-.302 1.91-1.509 3.057-3.32 4.203-5.434l1.145-4.527c.383-3.019-1.145-5.735-1.527-8.753 0-1.509.383-3.32-.383-4.829 0-.303-.381-.303-.764-.303v.303c.764-2.113 1.91-4.227 4.203-5.735 .383-.302 0-.302-.383-.302-.764,1.207-1.91,1.811-2.674,2.717-.764,1.509-2.293,3.018-2.674,4.829-.383.905-.383,1.812-.766,2.717-.381,4.527 1.146,9.055-.764,13.28v.906c-.379.905-.762,1.81-1.143,2.717"/>
 <path d="m238.008,112.422c-.381.906-.381,2.113-.381,3.019 3.055-.905 4.965-3.622 5.73-6.036 0-.906.764-1.51.764-2.415 .764-5.131-1.529-9.961-1.529-15.093 0-.301-.764-.301-1.146-.301 1.146-2.113 2.676-4.227 4.586-6.037-1.91,1.811-3.82,3.924-4.967,6.037-2.674,4.829-.383,9.658-1.146,14.789-.383,2.113-1.146,4.227-2.291,6.34 1.145-3.02 2.291-6.037 1.908-9.357 0-2.717-.381-5.735 0-8.451 .766-3.623 3.057-6.641 6.113-9.357h.766c-1.912,1.811-3.057,3.622-4.586,5.734 .764-.301 1.146.604 1.146.604 .383,3.623.764,6.943 1.527,10.263 .383,2.717 0,5.434-1.145,7.849-.383.604-.766,1.207-1.146,2.112-1.146,1.51-2.676,3.32-4.967,3.32 0-.907-.383-2.114.764-3.02z"/>
 <path d="m228.458,108.196c-.382.905-1.528,1.812-1.146,3.019 .382,0 .382,0 .382.302 6.112-1.509 8.788-6.641 11.079-10.866 0-4.829 1.529-9.357 1.91-13.885h-.764c.383-.905 1.527-1.207 1.91-2.113 1.146-1.508 3.438-2.112 4.586-3.622-2.293,1.51-4.969,3.019-6.879,5.132-.764.905-1.145,1.51-1.908,2.113-.766.905-1.146,1.509-1.146,2.717 0,.604-.766,1.207-1.146,1.811-1.146,3.924-1.146,7.848-4.203,11.47v.604c-1.147,1.206-1.91,2.111-2.675,3.318"/>
 <path d="m228.84,108.196c-.764.905-1.911,2.112-1.147,3.019 .383.302 1.53,0 1.911-.604h.764c4.203-2.717 7.26-6.339 8.023-10.564 1.145-4.226 1.145-7.848 2.291-12.074 0-.301.383-.905-.381-1.207h-.766c2.293-1.811 3.822-3.924 6.496-5.433h.764-.764c0,.302 0,.604-.383.604-3.82,1.51-6.113,4.226-8.021,7.244 0,.302-.766.302-.766.604-.381,1.208-1.146,2.112-1.146,3.32 0,.604-.764.905-.764,1.509 0,1.208-.381,2.113-.381,3.32 0,.604-.383.906-.766,1.509v.906c-1.145,2.716-3.438,5.131-4.965,7.546 0,.604-.382.302-.764.302 3.819-4.226 5.729-9.356 7.258-14.79 1.146-5.131 5.348-9.357 11.08-12.376 .381,0 .764,0 .381.303-2.674,1.509-4.584,3.622-6.494,5.433l-.383-.302c.383,0 1.146.302 1.146.604 0,1.51-.764,2.717-1.146,4.226-.383,5.434-.764,11.168-4.967,15.998-1.146,1.207-2.291,2.113-3.82,3.018-.764.303-1.145.604-1.908.906-.765.302-1.912.604-2.293-.302 0-.905 1.146-1.812 1.146-2.717l.765-.002z"/>
 <path d="m225.783,102.763v.604c-.764.604-1.527,1.811-.764,2.717 .382.604 1.528-.303 2.674-.604 5.348-3.32 8.788-7.546 9.168-12.677 .383-4.226 1.529-8.452 1.91-12.677h-.764c1.91-2.415 4.203-4.226 7.258-5.735-3.055.604-5.348,3.019-7.258,5.131l-.764.303c-1.529,2.112-3.057,3.923-3.439,6.036-1.909,6.338-3.437,11.771-8.021,16.902"/>
 <path d="m226.166,102.763c-.765.906-1.529,2.113-1.146,3.321 7.641-2.113 11.461-8.452 12.225-14.488 .383-3.32.383-6.641 1.527-9.961 0-.604.383-1.207-.381-1.509h-.764c1.908-2.113 4.584-3.925 6.875-5.735h.764-.764c-7.641,4.226-11.842,10.564-12.225,17.809-1.527,3.622-3.055,7.546-6.495,10.563 1.528-2.112 3.44-4.225 4.204-6.64 0-.302.764-.604.764-.905 1.527-3.622 1.527-7.849 3.438-11.471 2.293-3.923 5.73-7.546 10.697-9.658 .381,0 .381,0 .381.302-2.291,1.811-5.348,3.32-6.875,5.735l-.383-.302c.383.302.764.302 1.146.302v1.811c-1.527,3.622-1.527,7.244-1.91,10.866-.764,4.226-2.674,7.848-6.494,10.866-1.91,1.207-3.439,3.019-6.114,2.415-.381,0-.764-.604-.381-.906 1.146-.604.381-2.114 1.911-2.415z"/>
 <path d="m223.491,88.879c-.382.905-1.528,1.509-1.528,2.414 1.528,0 3.057-.604 4.585-.905 .764-.302 1.528-.604 1.91-.905 2.673-1.811 5.347-3.924 6.494-6.942 .764-3.32 3.057-6.036 4.203-9.356-.383.301-.383-.604-.764-.303 2.291-1.207 4.201-2.717 6.875-3.32-8.021,1.51-12.605,7.547-15.279,13.584l-.764.302c-1.147,2.111-3.822,3.619-5.732,5.431"/>
 <path d="m223.873,88.879c-.382.905-1.528,1.509-1.528,2.414 4.967-.604 9.169-3.621 11.46-6.942 1.91-3.018 2.676-6.64 4.586-9.658 0-.604.764-.905.381-1.509l-.381-.303c1.91-1.207 4.201-2.112 6.111-3.32h.764c-1.527.303-3.055.906-4.584,1.51l-.381.604c-3.057,1.207-5.73,3.32-6.877,5.735-2.674,4.226-4.966,8.753-9.933,11.47 3.82-3.32 7.259-6.942 9.169-11.168 1.527-2.415 3.82-4.227 6.494-6.037 1.91-.905 3.82-1.51 5.73-2.415 .381,0 .764,0 .764.302-3.057.303-4.584,2.717-7.258,3.32h.764v.906l-4.584,9.055c-1.529,4.226-6.495,8.451-12.608,8.451-.38-.906.765-1.812 1.911-2.415z"/>
 <path d="m218.524,87.973c-.763.906-1.528,1.51-1.528,2.415 .383.604 1.911.302 2.675.302 3.057-.905 5.349-2.414 7.641-4.226 .765-.604 1.146-1.509 1.912-2.113 1.145-.904 1.527-2.112 2.291-3.32 1.527-3.923 2.291-7.546 4.584-11.167v-1.51h-.764c2.293-1.811 4.967-3.319 8.023-4.226-8.406,1.811-14.135,8.149-16.428,14.79-1.529,3.622-5.348,6.339-8.406,9.055"/>
 <path d="m218.907,87.973c-.765.906-1.528,1.51-1.528,2.717 4.584.303 8.022-2.414 10.697-5.131 .764-1.208 1.911-2.414 2.674-3.622 1.527-3.019 1.91-6.339 3.438-9.356 .764-.906.764-1.812 1.527-2.717v-1.208s-.381-.302-.764-.302c2.676-1.509 4.967-3.622 8.406-4.226-4.967.906-8.787,3.924-12.227,7.244-.381.604-.764.905-1.145,1.509-1.146,2.113-1.911,4.227-3.057,6.339-.764,1.208-1.528,2.113-2.293,3.32-1.909,2.112-3.819,3.924-6.112,5.433 1.146-1.811 3.438-2.716 4.967-4.526 2.675-3.622 4.202-7.546 6.496-11.169 3.055-3.924 7.641-6.941 13.371-8.451-2.293,1.812-5.35,2.717-8.023,4.527 .381,0 1.146,0 1.146.302 0,1.208-.766,2.113-1.529,3.32-1.91,4.226-2.674,8.754-5.729,12.677-2.675,3.02-6.114,5.434-10.699,6.34-1.528.301-1.91-.604-1.528-1.51 .383-.302.766-.905 1.146-1.51h.766z"/>
 <path d="m207.064,75.598c-1.146.303-2.674.906-2.674,2.113 6.112,1.811 12.224-.604 17.191-3.32 .381-.302.381-.604 1.146-.906 0,0 .382-.301.382-.604 .382,0 .382-.301.764-.301 0-.303.383-.303.383-.604 .381,0 .764-.302.764-.302 2.292-3.019 5.731-4.527 8.405-6.942-.383-.302.381-.604-.383-.604 .764-.302 1.91-.604 3.057-.905 2.293-.302 4.203,0 6.494-.604-5.73-.302-11.461.302-16.426,3.019-3.057,1.811-5.349,3.923-8.404,5.734-3.44,1.812-6.879,3.019-10.699,4.226"/>
 <path d="m207.064,75.598c-.765.604-1.911.604-2.674,1.51v.604c5.729,1.811 11.46-.302 16.045-3.019 4.966-2.717 8.022-6.641 12.606-9.961 .383-.302-.381-.905-.381-.905 2.674-.905 5.348-.905 8.404-1.207 .381,0 1.146-.302 1.527.302-3.057-.604-5.73,0-8.787.302-3.055.604-6.112,1.812-8.786,3.32-3.057,1.811-4.966,3.621-8.023,5.433-3.055,1.507-6.493,2.715-9.931,3.621l-.382-.302c3.056-.905 6.494-1.812 9.168-3.32 .382-.302.764,0 1.146-.302 7.26-5.131 15.665-10.564 25.596-8.753-3.438,0-6.494.604-9.551,1.207v-.302c.383.302.764.905.383,1.208-2.293,2.414-5.731,3.621-8.023,6.036-1.528,1.811-3.438,3.32-5.73,4.527-4.584,2.113-10.314,3.924-15.28,2.113-.383,0-.383-.302-.383-.604 .764-.604 1.528-1.51 2.675-1.812l.381.304z"/>
 <path d="m204.771,73.184c-1.146.604-2.292,1.207-3.056,2.112 1.528.905 3.438.604 4.967.604 4.584-.906 8.786-2.113 11.842-4.83 3.058-3.019 5.731-5.734 8.787-8.451 .382-.604 1.529-.906 1.146-1.812l-.382-.302c1.528-.604 3.438-.604 4.965-1.207 1.529-.303 3.057,0 4.203-.604-9.168,0-16.809,4.527-22.541,9.96-.381.302-1.146.302-1.527.604-2.291,1.812-5.73,2.718-8.404,3.926"/>
 <path d="m204.771,73.484c-1.146.604-2.292.906-2.674,2.113 .382,0 1.146,0 1.528.303 1.146.301 2.674-.303 4.202-.303 .382,0 1.146-.604 1.528-.604 1.528,0 2.675-.302 3.82-1.207 .382-.303 1.527-.303 1.91-.604 1.909-1.208 3.82-2.717 5.349-4.227l3.438-3.621c1.528-1.51 3.057-2.717 4.585-3.924 .382-.303-.382-.604-.382-.906 2.674-1.51 5.348-1.207 8.405-1.811h.764c-6.113.604-12.225,1.811-16.809,5.131-2.674,2.112-4.967,4.226-8.023,6.338-2.292,1.512-4.967,1.814-7.641,3.322l-.381-.301c3.819-1.208 7.259-2.717 10.313-4.83 4.203-3.319 7.641-6.941 13.372-8.451 3.055-.604 6.112-1.811 9.168-.906-3.057.303-6.113.906-8.787,1.812l-.382-.302c.382,0 1.147.302.764.604-.382.604-.764,1.208-1.147,1.51-1.146.302-1.527,1.207-2.292,1.811-4.202,3.622-7.259,7.848-12.606,9.961-3.438,1.207-7.259,2.113-11.079,1.207 0-1.207 1.528-1.811 2.675-2.414l.382.299z"/>
 <path d="m199.423,66.543c-.765.905-2.292.604-3.057,1.509 0,.302 0,.604.382.604 5.73,2.113 12.226.302 17.574-2.415 0,0 .381-.302.381-.603 .383-.302 1.146-.302 1.528-.604 2.675-3.019 6.877-3.925 9.934-6.642 .382-.301 0-.301-.383-.301 2.675-1.208 6.112-.303 9.168-.604-6.875-.906-14.516,0-20.248,3.924-4.582,2.717-9.549,4.527-15.279,5.132"/>
 <path d="m199.804,66.845c-.764,0-1.527.302-2.292.905h-.764v.604c.383.905 1.528.604 2.292.905 5.35.604 10.315-.302 14.518-2.716 2.292-1.509 4.584-3.019 6.495-4.83 .382-.301 1.146-.301 1.528-.604 0-.302.381-.604.381-.604 1.528-.604 2.293-1.207 3.82-1.811-.382-.303.383-.906-.382-.906 3.057-.301 6.494-.905 9.55-.301-4.965-.604-10.315-.303-14.898,1.207-3.439,1.509-6.113,3.32-9.551,5.131-3.437,1.511-6.876,2.415-10.697,3.02l-.381-.302c3.82-.905 7.641-1.207 11.079-3.019 7.64-4.226 15.663-8.452 24.832-6.036-1.91.301-4.203-.303-6.111,0-1.147.301-2.293.301-3.44.604 0-1.812.383,0 .383,0 .382.604-.765.904-.765,1.207-3.819,2.113-6.877,4.226-10.314,6.64-3.438,2.113-6.877,3.32-11.079,3.622-2.675,0-5.73.604-7.641-1.207v-.604c.765-.905 1.91-.905 3.057-1.207l.38.302z"/>
 <path d="m193.311,62.619c-1.146.604-3.438.604-3.438,1.811 3.82,1.811 8.022,1.208 12.225.604 2.674-.604 4.967-1.51 6.877-3.019 .382-.303 1.146-.303 1.528-.604 .764-.906 1.909-1.208 2.674-1.812 0-.302.382-.302.382-.604 1.146-.604 2.292-1.207 3.438-1.508 .766-.303 1.528-1.208 2.293-1.208s.382-.604 1.146-.905c.382-.303 0-.303-.382-.303 3.056-.603 6.112-.301 9.169,0-4.204-1.206-8.788-.905-13.373,0-4.201,1.208-7.641,3.02-11.46,4.83-3.438,1.511-7.259,2.115-11.079,2.718"/>
 <path d="m193.311,62.921c-1.146.302-2.675.302-2.675,1.207-.383.604 1.146.906 1.91.906 4.966.904 9.551.302 13.753-1.51 .383-.302 1.146-.604 1.91-.905 3.821-2.113 6.494-4.527 10.314-6.037 .765-.302 1.529-.604 1.529-1.51l-.383-.301h9.552c-6.114-.604-12.227-.905-17.957,2.112s-11.078,5.133-17.953,6.038l-.383-.302c3.82-.906 7.642-.906 11.462-2.717 3.055-1.51 5.729-3.32 8.786-4.226l3.438-.905c4.203-.905 8.787-1.208 12.99.301-3.056-.301-6.495-.301-9.55,0 .382,0 .764.303.382.604-4.585,2.415-8.404,4.829-12.99,7.546-4.583,2.415-9.168,3.018-14.134,2.415-1.146-.302-4.203-.906-3.058-2.113 .383-.302 1.528-.905 2.675-.905l.382.302z"/>
 <path d="m187.58,53.262c-1.146,0-2.674,0-3.819.604v.604c5.348,3.319 11.843,3.319 17.572,1.509 4.585-1.207 8.787-3.019 13.754-4.226 .382-.303.764-.303.764-.906 3.057,0 6.112.906 8.786,1.51-3.438-1.811-8.022-2.415-12.225-2.415-2.674,0-5.348.604-8.021,1.208-1.911.604-3.82,1.207-6.113,1.811-3.439.602-7.26.301-10.698.301"/>
 <path d="m187.58,53.262c-1.146.604-2.674,0-3.819.905 4.584,3.622 11.461,3.321 17.191,2.113 3.438-.905 6.112-2.717 9.551-3.622 .764,0 1.146-.302 1.909-.302 .383,0 .765-.302 1.146-.604h1.146c.383,0 .765-.303 1.146-.604s-.764-.303-.382-.604c3.056,0 6.113.904 9.168,1.811-4.583-1.811-9.55-2.415-14.517-2.113-4.584.604-8.787,2.415-13.371,3.019-3.056.302-6.495.604-9.55-.302 3.819.604 7.641.302 11.842-.302 4.203-.905 7.642-2.415 11.844-2.717 4.966,0 10.314,0 14.135,2.717-3.057-1.208-6.112-1.208-9.169-2.112 0,.301.382.301.382.604s-.382.604-.764.604c-4.584,1.207-8.786,2.717-12.989,4.226-5.73,1.811-14.135,2.414-18.719-1.812v-.604c1.146-.604 2.292-.302 3.438-.604l.382.303z"/>
 <path d="m187.199,47.526c-1.528-.301-2.293,0-3.821,0v.604c6.495,5.434 16.809,3.925 24.832,1.812 1.91-.604 4.202-.905 6.494-1.207 .383-.302 1.146,0 1.146-.604v-.604c2.292.604 4.585.906 6.494,1.812 .765.302 1.146.604 1.911.905-1.146-.604-2.293-1.207-3.438-1.509-4.203-1.812-9.551-2.415-14.518-2.112-6.113,2.111-12.606,1.507-19.1.903"/>
 <path d="m187.199,47.526c-1.146,0-2.675-.301-3.821.303 4.202,3.924 11.844,4.829 17.955,3.32 4.967-.906 9.552-1.812 14.518-3.02 0,0 0-.604-.382-.604 3.056,0 5.73,1.51 8.787,2.415 .381,0 0,.302-.383.302-7.259-4.226-16.045-4.226-24.068-2.113-4.201,0-8.404.604-12.605-.904h.764c4.202.904 8.022.604 12.224.604 8.023-2.415 16.81-2.113 24.069,2.112v.604c-.765-.604-1.911-.906-2.674-1.208-1.911-.905-3.82-.905-5.731-1.812 0,.303.382.303.382.604s-.382.604-.764.604c-3.438.604-6.877.905-10.315,2.112-4.967,1.51-10.313,1.812-15.28.604-2.293-.904-6.112-1.509-6.495-3.924 1.146-.604 2.675-.301 3.821-.301v.302h-.002z"/>
 <path d="m254.436,127.514v2.415c4.201-1.509 4.201-5.132 5.348-8.149-.764-3.622-.764-7.244-2.293-10.866 .766-1.812 1.912-3.019 3.057-4.528-4.584,3.623-5.729,9.659-4.201,14.488-.765,2.112-.384,4.527-1.911,6.64"/>
 <path d="m254.818,127.514c-.383.906-.383,1.51-.383,2.415 3.438-.905 3.82-3.924 4.584-6.036 .764-1.51.764-3.321.383-5.132-.766-2.717-.766-4.829-1.529-7.546h-.764c.764-1.811 1.91-3.32 3.438-4.83-.381.604-.764.604-1.527,1.51-.383.905-1.91,2.113-2.291,3.32 0,.905-.766,1.51-.766,2.415-.381,3.923 1.146,7.847-.381,11.771-.383.905-.383,1.812-1.146,2.415 0-1.208.764-1.812 1.146-3.02 .764-3.621-.383-6.942 0-10.563 .381-2.717 1.908-5.132 3.82-7.244 .381,0 .764-.604 1.527-.604-1.91,1.208-2.293,3.02-3.439,4.528 .383,0 .766,0 .766.302 .381,2.717.764,5.434 1.527,8.149 .383,2.415 0,4.528-1.146,6.641-.764,1.509-1.908,3.924-4.584,3.924 0-.906 0-1.812.765-2.415z"/>
 <path d="m259.02,126.307v2.113c2.674-.906 3.438-3.019 4.203-4.83 .764-2.113.764-4.226 0-6.339-.766-1.811-1.146-3.923-1.146-5.734 0-.302-.383-.302-.766-.302 .383-.906.766-1.811 1.529-2.717 .764-.604.383-1.207 1.529-1.509-.766-.302-.383.604-1.146.604-.383,0-.383.604-.383.905-1.91,1.811-2.293,3.924-3.057,6.037-.381,1.509.383,3.319.764,4.829 .383,2.415-.764,4.829-1.527,6.943"/>
 <path d="m259.402,126.307c-.383.604-.383,1.51-.383,2.113 3.82-1.51 4.584-5.132 4.203-8.15 0-.905.381-1.811 0-2.717-1.529-2.112 0-4.527-1.912-6.338 .383-1.51 1.529-3.019 3.059-4.226-.383,0-.766,0-.766.302-1.527,1.811-3.057,3.622-3.438,5.734-.383,3.019.764,5.735.381,8.754-.381,1.509-.764,3.018-1.527,4.527v-.604c1.91-3.622.383-7.546.764-11.47 .764-2.717 1.527-5.735 4.586-7.244-1.146,1.207-2.293,2.716-3.059,4.226h.766c.764,2.717.764,4.829 1.527,7.546 .766,3.622-.381,7.244-3.82,9.659h-1.146c.383-.603-.381-1.811.765-2.112z"/>
 <path d="m250.996,122.685c.383.604-.764,1.509-.381,2.112 3.82-.604 5.348-4.527 5.348-7.244 .383-3.923-.764-7.545-1.145-11.469-.383-1.812 1.527-3.02 2.672-4.527-2.672,2.112-4.584,4.828-4.584,7.545-.763,4.528.383,9.357-1.91,13.583"/>
 <path d="m250.996,122.685v2.112h.766c0-.904 1.145-.604 1.527-1.207 1.91-2.717 3.439-5.131 2.674-8.149-.381-3.32-.381-6.339-1.527-9.356l-.383.301c.766-1.811 1.91-3.32 3.438-4.828-2.672,2.112-4.584,4.828-4.584,7.848-.764,4.526.763,9.053-1.911,13.279 1.529-3.924 1.529-7.848 1.529-11.771-.383-3.32 1.527-6.641 4.584-9.356h.764c-1.91,1.206-2.291,3.319-3.82,4.527 .766-.303 1.146.604 1.146.604 0,3.621 1.529,6.942 1.146,10.563-.764,3.019-1.527,6.339-5.35,7.849-.763-.605-.38-1.511.001-2.416z"/>
 <path d="m192.546,19.758c-1.146-.302-2.674-.604-3.82-.604-.382,1.207 1.146,2.112 2.292,3.019 3.057,2.112 6.877,3.32 10.697,3.621 5.349.303 10.315-.301 15.663,0 .383,0 .383-.301.383-.604 1.909,1.51 4.583,2.113 6.111,3.924 .383.303.383,0 .383-.301-3.057-2.415-6.494-4.227-10.697-5.434-4.202-.905-8.787-.604-13.372-1.207-.382,0-1.146-.604-1.527-.604-2.292-.301-4.202-1.207-6.113-1.81"/>
 <path d="m192.546,19.758c-1.146-.302-2.293-.302-3.438-.604l-.382.302c2.674,4.226 8.786,6.037 14.136,6.338 4.583,0 9.55-.301 14.134,0 .383,0 .383-.301.383-.604 2.675.906 4.966,2.415 6.877,3.924-3.82-3.32-8.787-5.734-14.136-6.036-6.112-.604-12.607-.302-17.573-3.622 3.057,1.51 6.877,2.113 10.315,3.019 8.022-.302 17.191,1.207 21.774,6.942-2.292-1.207-4.583-2.717-6.875-4.227v.604c-5.35.604-10.316,0-15.664,0-3.438-.301-6.494-1.207-9.551-2.716-1.528-.905-4.584-2.415-3.438-4.226 1.145.604 2.674.001 3.438.906z"/>
 <path d="m202.097,25.19c-1.146-.301-2.293-.905-3.82-.604v.604c2.675,3.924 8.022,5.434 12.989,5.735 5.348.604 10.315,0 15.663.302 .382,0 .382-.302.382-.604 1.912,1.51 4.583,2.113 6.113,3.924 .381.302.381,0 .381-.302-3.055-2.415-6.494-4.226-10.696-5.433-4.202-.906-8.786-.604-13.371-1.208-.382,0-1.146-.604-1.528-.604-2.293-.3-4.203-1.206-6.113-1.81"/>
 <path d="m202.097,25.19c-1.146-.301-2.293-.301-3.438-.604l-.382.303c2.675,4.225 8.787,6.036 14.135,6.338 4.584,0 9.551-.302 14.136,0 .382,0 .382-.302.382-.604 2.674.905 4.965,2.414 6.875,3.924-3.818-3.32-8.786-5.734-14.134-6.037-6.112-.604-12.606-.301-17.573-3.621 3.056,1.509 6.877,2.112 10.314,3.018 8.023-.302 17.192,1.207 21.776,6.942-2.293-1.207-4.584-2.716-6.876-4.226v.604c-5.349.604-10.315,0-15.662,0-3.439-.302-6.496-1.207-9.552-2.717-1.527-.905-4.585-2.414-3.438-4.226 1.144.606 2.673.001 3.437.906z"/>
 <path d="m207.828,30.624c-1.528,0-2.675-.906-4.202-.604v.604c2.674,4.226 8.405,6.338 13.753,6.641 6.112.905 12.225.302 18.336.302 0,0 1.146.302 1.146-.302l-.381-.303c2.674,1.208 5.348,2.717 7.641,4.528-1.146-1.509-2.676-2.415-4.586-3.32 0-.302-.381-.302-.381-.604-2.293-1.509-4.584-1.812-7.26-2.717-5.347-1.509-10.696-.302-16.044-1.509-2.674-.905-5.73-1.206-8.022-2.716"/>
 <path d="m207.828,30.926c-1.528-.302-2.675-.905-4.202-.604 2.292,3.924 7.641,6.036 12.988,6.942s9.934-.604 15.281,0c1.529.302 3.057.302 4.586.302v-.604c3.055,1.208 5.73,2.717 8.021,4.83-1.145-.905-2.291-1.51-3.057-2.717-.381-.302-1.145-.302-1.527-.604 0-.302-.383-.604-.383-.604-3.82-1.811-7.258-3.32-11.459-3.622-3.82,0-7.641,0-11.462-.604-.764-.302-1.527-.604-2.674-.604-1.909-.604-4.202-1.207-6.112-2.414 1.528.604 3.438.604 4.967,1.811 1.909.906 4.201.604 6.112,1.208 4.584.604 9.169,0 13.371,1.207 4.584,1.208 9.168,3.32 12.225,6.641 .383.302 0,.302-.381.302-2.293-1.811-4.586-3.32-7.641-4.527l.381-.303c0,.303 0,.906-.381.906-5.73,0-11.461,0-17.192-.302-6.112-.302-12.225-2.112-15.663-6.641-.382-.604 0-1.509 1.146-1.208 1.145.605 2.292.304 3.056,1.209z"/>
 <path d="m205.536,36.058c-1.528-.604-2.674-.303-4.203-.303v.604c.383.604 1.146.604 1.529,1.208 .764.302 1.146.604 1.909.905 2.674,1.207 5.731,1.811 8.787,2.113 2.292.302 4.203-.303 6.495-.303 2.291-.301 4.202-.904 6.494-1.207 2.292-.604 4.966-.302 7.257-.905 .383,0 .383-.302.383-.604 2.674.905 5.348,2.112 8.023,3.019-3.057-1.812-6.113-3.019-9.934-3.924-4.966-.604-9.55-.303-14.516.604-4.202.603-8.022-.907-12.224-1.207"/>
 <path d="m205.536,36.058c-1.528.301-3.057-.906-4.203-.303-.381.604.765,1.207 1.529,1.51 1.909.905 3.82,1.811 5.729,2.414 1.146,0 1.911.604 3.058.604 5.729.303 10.695-.604 16.427-1.509 1.911-.302 3.438-.302 5.348-.604 .381,0 .381-.302.381-.604 3.057.905 6.113,1.509 8.406,3.32-4.967-3.32-11.844-5.132-18.338-4.528-3.819.604-7.259,1.208-11.078.906-2.292-.303-4.967-.303-7.259-1.51 7.259,2.113 14.899.303 22.54.604 4.965.303 10.696,1.208 14.135,4.528-1.146-.604-2.676-1.208-3.82-1.812-1.529-.604-3.057-.905-4.203-1.509 .383.604-.764.905-.764.905-1.91,0-3.438.302-5.348.604-9.169,1.812-19.484,3.019-26.743-2.717v-.904c1.529-.302 2.674.302 4.203.605z"/>
 <path d="m205.153,40.887c-1.527,0-2.674-.302-4.201.302 1.146,1.509 3.819,2.113 5.73,2.717 4.967,1.207 9.932.604 14.517-.604l4.584-1.812c3.057-.604 6.112-1.812 9.168-1.812 2.293-.301 4.584.303 6.494,1.51h1.146c-4.965-1.811-9.932-3.32-15.281-2.717-4.584.604-8.404,2.113-12.988,2.717-3.056.302-6.113-.301-9.169-.301"/>
 <path d="m205.536,40.887c-1.528-.302-2.674,0-4.203.302v.604c4.967,3.019 11.462,3.32 17.191,1.811 5.349-1.207 10.316-2.716 15.281-4.225l-.381-.303c3.057.303 6.111,1.207 9.168,2.113-2.291-.906-4.201-1.51-6.494-2.113-3.438-.604-6.875-.604-10.315,0-3.438.303-6.876,1.51-10.314,1.812-3.438.604-6.877.604-10.315,0 3.438,0 7.259.604 10.697-.302 8.786-1.812 18.337-3.924 26.742.604 .383.302 0,.302-.381.302-2.676-1.509-5.73-1.208-8.406-2.415v.906c-4.965.905-9.932,2.112-14.516,3.924-3.438.905-6.877.905-10.314.604-3.057-.303-6.877-1.207-8.022-3.622l4.582-.002z"/>
 <path d="m210.12,44.509c-1.146,0-1.91.302-3.056.604-.382,0-.765.302-.382.604 3.056,1.811 7.258,1.811 11.079,1.207 6.494-.604 11.079-4.527 16.809-6.338 .764,0 0-.303.381-.604h-.381c3.057,0 5.73.301 8.404.905-4.584-1.812-10.314-1.812-14.899-.302-5.731,1.509-11.461,4.226-17.955,3.924"/>
 <path d="m210.12,44.811c-1.146-.302-2.292.302-3.438.604 4.202,2.716 11.079,2.415 16.045.302 3.82-1.811 7.64-3.622 11.843-5.131v-.604c3.057-.303 5.348.301 8.404.604 0,0 0,.302-.383.302-8.021-3.019-16.426,0-23.685,2.716-3.057.906-6.112.906-9.169.906 2.293-.604 4.966-.303 7.258-.604 2.675-.604 4.586-1.51 6.877-2.415 6.114-2.112 12.989-3.019 19.102-.604-2.674-.604-5.348-.302-8.023-.905v.604c-1.146.905-2.674.905-4.201,1.509-1.527.905-3.057,1.208-4.584,2.415-3.057,2.113-6.877,2.717-10.697,2.717-2.674.301-7.641.301-8.786-2.113 1.145-.303 2.291-1.209 3.437-.303z"/>
 <path d="m211.266,49.64c-1.146.302-2.675.302-3.057,1.207 0,.604 1.146.604 1.91.906 4.967.604 9.551-.303 13.753-2.415l.383-.604c2.674-1.208 4.202-3.32 6.875-4.528 1.529-.604 2.674-1.207 3.82-2.112 .383-.302 0-.302-.381-.302 1.91-.905 3.82-.302 5.73-.302 .764,0 1.91-.302 2.674,0-7.26-1.509-14.517.604-20.248,4.527-3.436,2.113-7.639,2.416-11.459,3.623"/>
 <path d="m211.649,49.64c-1.146,0-2.293.302-3.058.906v.604c5.349,1.811 11.079.301 15.664-2.113 1.527-.906 2.674-2.113 4.202-3.32 1.91-1.51 4.966-2.113 6.494-3.924-.381,0-.381-.302-.381-.302 2.674,0 5.73-.905 8.404,0-3.82-.604-7.641-.604-11.461.604h-1.146c-2.674,1.509-5.348,2.415-8.023,4.226-1.909,1.207-4.202,1.811-6.494,2.415-1.527.3-2.674.602-4.201.904l-.383-.302c4.966-.905 9.933-2.415 14.135-5.132 4.966-3.018 11.46-4.225 17.574-2.716-2.674,0-5.73-.302-8.404.302 .381,0 .764.302.381.604-3.82,2.415-7.64,4.83-11.46,6.942-4.202,2.415-10.696,4.528-15.281,1.509-.382-.301 0-.604.382-.604 1.146,0 1.528-.905 2.675-.905l.381.302z"/>
 <path d="m217.761,54.47c-.383.302-1.147.603-1.529,1.207-.382.302.382.604.382.905 4.968-.302 8.787-2.415 11.462-5.735 1.911-2.717 3.438-5.131 5.348-7.848 0-.302-.383-.604-.764-.604 2.291-.604 4.201-1.811 6.494-2.113-4.967.303-9.551,2.717-12.225,6.037-2.293,3.321-5.73,5.736-9.168,8.151"/>
 <path d="m217.761,54.47c-.383.603-.766,1.207-1.529,1.509 3.821,1.207 8.023-1.509 10.315-3.622 2.675-2.717 3.82-6.037 6.494-9.055 .383-.303-.381-.604-.381-.906 1.91-1.207 4.201-1.811 6.494-2.113-8.404.604-11.843,7.244-17.192,11.772-1.146.604-2.292,1.509-3.438,2.112-.382,0-.763.604-1.146.303 3.438-2.113 6.494-4.227 9.169-7.547 2.675-3.621 6.876-6.641 12.607-6.641-2.293.303-4.203,1.812-6.494,2.113 .764,0 1.145.604.764.906-2.293,2.716-3.438,5.433-5.731,8.148-2.292,2.717-5.73,4.528-9.932,5.132-.766,0-1.529,0-1.911-.604 .764-.3.764-1.507 1.911-1.507z"/>
 <path d="m213.558,83.145c-1.146.603-1.909,1.508-1.909,2.716 3.055.604 5.729-.905 8.404-1.812l.382-.603c6.112-3.019 8.405-8.15 10.696-13.282 .383-.301 1.146-.604 1.146-.905-.383-.604.383-.604.383-1.207 .764-.302.764-.905 1.145-1.207s0-.906-.381-1.509c2.674-1.208 5.348-2.717 8.404-3.32-6.494.604-12.225,4.527-16.045,8.753-2.292,5.131-6.876,9.055-12.225,12.376"/>
 <path d="m213.94,83.145c-.764.603-1.909,1.508-1.909,2.716 5.348,0 9.932-3.019 13.37-6.036 3.439-3.32 3.822-7.244 6.494-10.867 .383-.302.766-.905 1.146-1.207 .383-.604 1.146-1.51.764-2.112h-.764c2.674-1.812 5.73-3.019 8.787-3.925-4.584,1.208-9.168,3.019-12.605,5.735-.765.905-1.912,1.811-2.675,2.716-1.911,2.717-3.438,5.736-6.112,8.15-1.912,1.811-4.204,3.32-6.496,4.83h-.764c.382,0 .764-.604 1.146-.906 6.494-3.32 8.786-8.451 12.988-13.281 1.529-1.509 3.439-3.019 5.349-4.226 3.055-1.207 5.73-2.716 9.168-3.019l.383.303c-3.057.604-6.113,2.112-8.787,3.622v-.302c.381,0 .764.302.764.302 .383,1.207-1.146,2.112-1.527,3.319-2.293,3.32-3.438,6.641-6.113,9.961-.765.604-1.146,1.51-1.911,2.112-3.438,2.717-8.022,5.735-12.987,4.83 0-.302 0-.604-.383-.604 .765-.604 1.146-1.51 1.91-2.112l.764.001z"/>
 <path d="m221.199,63.223c-.764.604-1.146,1.509-.382,2.113 8.406-1.208 11.078-9.056 12.607-15.093 0-.604.381-1.509.764-2.113 0-.604.383-1.207 0-1.811h-.764c1.91-1.509 3.82-2.717 5.73-4.226-6.877,2.717-10.314,8.149-12.225,14.187-1.146,2.716-3.82,4.528-5.73,6.943"/>
 <path d="m221.199,63.223c-.382.604-.382,1.207-.382,1.812 .382,0 .382,0 .382.302 4.967-1.208 8.788-4.528 9.932-8.452 1.146-3.622 2.293-6.641 3.057-10.262 0-.303-.764-.303-1.146-.303 1.91-1.811 4.203-3.018 6.494-4.226-1.145.905-2.674,1.208-4.201,2.112-3.057,1.812-5.348,4.227-6.111,6.943-.765,1.207-1.53,2.414-1.53,3.923-.382,2.113-2.292,3.924-4.202,5.434-.764.906-1.146,2.415-2.674,2.717 1.527-1.51 3.438-3.019 4.202-4.83 4.204-6.036 5.731-14.187 14.899-16.299-1.527.905-2.674,1.812-4.203,2.415-1.145.302-1.145,1.509-2.291,1.811 .381,0 .381-.302.764-.302l.383.302c.381.906-.383,1.51-.766,2.415-.764,3.019-1.145,6.037-2.291,8.754-1.91,3.319-4.966,6.338-9.169,7.848-.763.302-1.909,0-2.291-.604 .762-.303-.385-1.51 1.144-1.51z"/>
 <path d="m224.255,93.406c-.383.906-1.528,1.51-1.528,2.415 1.528,0 3.056-.604 4.584-.905 .765-.303 1.529-.604 1.912-.906 2.672-1.811 5.348-3.924 6.492-6.942 .766-3.32 3.057-6.037 4.203-9.356 0-.302-.383-.302-.764-.302 2.291-1.208 4.203-2.717 6.877-3.32-8.023,1.509-12.227,7.848-15.664,13.583-1.144,2.111-3.438,4.223-6.112,5.733"/>
 <path d="m224.636,93.406c-.381.906-1.527,1.51-1.527,2.415 4.967-.302 9.168-3.622 11.079-6.942 2.293-3.622 3.82-7.244 5.348-11.168l-.381-.302c1.91-1.208 4.203-2.113 6.111-3.32h.766c-1.529.302-3.057.905-4.586,1.509l-.381.604c-4.967,2.113-7.26,6.641-9.934,10.564-1.527,2.415-3.438,5.131-6.875,6.641 3.82-3.32 7.258-6.942 9.549-11.168 1.146-2.414 3.439-4.226 6.113-6.037 1.91-.905 3.82-1.509 5.73-2.414 .383,0 .766,0 .766.302-2.676.604-4.586,2.716-7.26,3.32h.764v.905l-4.584,9.055c-1.529,4.227-6.494,8.754-12.607,8.452v-.604c.764-.605.382-1.812 1.909-1.812z"/>
 <path d="m225.401,71.07c0,.604-.765,1.207 0,1.811 1.146.303 1.91-.301 2.675-.604 2.674-1.811 4.584-3.622 5.348-6.339 .381-.904.381-1.811.764-2.716 .383-2.415-.383-4.83.383-7.546 0-1.207.764-2.415-.383-3.32h-.764c1.91-1.51 2.674-3.32 4.967-4.527-4.203,1.811-6.877,5.433-8.023,9.055-.381,2.112-.381,3.924-.764,5.735s-1.146,3.621-1.911,5.131c-.764,1.207-1.527,2.113-2.292,3.32"/>
 <path d="m225.783,71.07c-.382.604-.382,1.207-.382,1.811 3.822-.301 6.113-3.924 7.64-6.338 1.91-4.226.764-9.055 1.529-13.583-.766.302 0-.905-.766-.604-.381,0-.381.302-.764.302 1.529-.302.764-1.812 1.91-2.415 1.529-.604 1.91-2.113 3.82-2.717-1.527.604-2.291,1.51-3.438,2.113-1.146,1.207-1.91,2.415-3.057,3.622-2.291,3.32-1.91,6.641-2.674,10.263-.381,2.113-1.911,3.924-3.056,5.734 0,.604-.382.905-.765,1.51 0,.604-.382.302-.764.302 4.204-4.226 4.204-9.357 5.348-14.488l1.146-2.716c1.527-2.416 3.82-4.528 6.494-6.34h.764c-1.91,1.51-3.438,3.32-5.348,4.83 .381,0 1.527-.302 1.527.302 0,3.019-.381,5.734-.381,8.754-.383,4.526-2.676,9.96-8.788,11.771-.382,0-.764,0-.764-.303v-1.811l.769.001z"/>
 <path d="m229.223,76.805c.381.604-.765.906-.383,1.51 .383.905 1.527.302 2.291,0 3.439-1.811 4.967-4.83 5.73-7.848 .766-4.227-.381-8.451-.381-12.678h-1.146c1.146-.604 1.146-1.811 1.91-2.717 .383,0 .764-.301.764-.301 .383-.905 1.527-1.208 1.91-2.113-4.203,2.414-6.877,6.338-7.258,10.263 0,2.415 0,4.829-.383,7.243-.763,2.416-2.291,4.528-3.054,6.641"/>
 <path d="m229.223,76.805c.381.604-.383,1.208.381,1.812h.764c4.203-1.812 5.73-5.735 6.113-9.357 .764-3.923.764-7.546-.383-11.47 0,0-.764,0-1.146.303 1.146-1.208 1.91-2.717 3.057-3.925 .764-.301 1.146-.905 1.527-1.509 .383-.302.766,0 .383.302-4.584,2.717-6.877,6.641-6.877,10.564-.382,4.527-1.147,9.055-3.819,13.28 .381-2.716 2.672-4.829 2.672-7.546 .383-6.036 1.529-12.375 7.641-16.601h.766c-.766.302-1.146,1.208-1.91,1.509-1.529.905-1.529,2.717-3.057,3.622 .381,0 .381-.301.764-.301s.764.301.764.604c0,3.621.383,7.244.383,10.865-.383,3.924-3.057,8.15-7.641,9.961-.381,0-.764,0-.764-.302-.001-.603-.765-1.207.382-1.811z"/>
 <path d="m234.188,84.049v2.113c3.057,0 4.584-3.018 5.73-4.829 1.146-2.717 1.91-5.433 1.146-8.149-1.146-3.32-1.146-6.641-2.293-9.961 0,0-.764,0-1.145.302 .764-2.112 2.291-3.924 3.818-6.036-3.055,2.716-4.965,5.734-5.73,9.356-.764,4.829 1.529,9.659-.764,14.186v.906c-.381.302-.381.905-.764,1.208 .002.301.002.602.002.904"/>
 <path d="m234.188,84.049c-.383.604.383,1.51.383,2.113h.764c2.293-1.51 3.82-3.32 4.584-5.433 1.146-3.32 1.146-6.641 0-9.961-.764-2.415-.383-5.131-1.527-7.546-.383-.302-1.146.302-1.146.302 .764-2.112 2.674-3.924 3.82-5.735 0-.301.381-.301.764-.301-3.057,2.112-4.584,5.131-5.73,8.45-1.146,3.622.764,6.942.383,10.565-.766,2.716-1.146,5.433-2.676,7.847 1.146-4.526 3.439-9.356 1.529-13.884 0-4.528 1.527-10.263 6.494-12.979-1.91,1.811-2.674,3.924-4.201,5.734 .381,0 .381-.302.764-.302s.764.302.764.604c.381,3.019 1.146,6.036 1.527,9.056 .764,3.621 1.146,7.244-1.91,10.262-.381.303 0,.905-.381,1.207-1.146.906-1.91,1.812-3.439,2.415h-.764c-.764-.604-.383-1.509-.383-2.415h.381v.001z"/>
 <path d="m239.154,91.596c0,.604-.383,1.811.381,1.811 1.529.604 2.676-1.207 3.439-2.113 2.291-3.621 2.674-7.847 1.146-11.469-1.529-3.02-1.91-6.34-3.82-9.357-.383-.303-.766,0-.766.302 0-2.415 1.91-4.226 2.676-6.339-4.584,4.829-4.967,11.471-2.676,17.205 1.148,3.319-.38,6.639-.38,9.96"/>
 <path d="m239.154,91.596c.381.604 0,1.811 1.146,2.112 .381,0 .764-.302.764-.302 .381-.905 1.527-1.51 1.91-2.113 .764-2.112 1.91-3.924 1.91-6.036 0-5.131-2.674-9.659-4.584-14.488 0,0-.766,0-1.146.302 .381-2.415 1.527-4.527 3.057-6.641-4.203,5.131-4.967,12.074-2.293,17.809 0,3.32.383,6.641-1.146,9.658v-1.207c1.146-1.811.764-3.924.764-5.734 0-4.829-2.674-9.357-1.145-14.187 .764-2.415 1.527-4.83 4.201-6.339-1.146,2.113-2.291,4.226-3.438,6.339 .764-.604 1.527-.302 1.91.302 .764,2.113.764,4.226 1.91,6.339 3.057,5.131 2.674,12.677-3.057,16.601-.764-.604-1.527-1.207-1.146-2.113l.383-.302z"/>
 <path d="m241.445,99.141c0,.604-.381,1.812.383,2.113 1.91.303 3.057-1.509 4.203-2.716 2.291-3.32 3.438-6.642 2.291-10.263-.764-3.32-.764-6.641-1.908-9.961 0,0-.766,0-1.148.302 .766-2.112 2.293-4.226 4.203-6.036-1.146.604-1.91,1.811-3.055,2.716v.604c-1.912,1.811-2.676,3.924-2.676,6.036-.763,5.736.764,11.772-2.293,17.205"/>
 <path d="m241.828,99.141c.383.604-.383,1.812.383,1.812 3.055,0 4.203-3.019 5.348-5.131 1.527-3.32 1.146-6.641 0-9.961-.764-2.414-.381-5.131-1.527-7.546-.383,0-.766,0-.766.302 .383-2.112 2.676-3.622 3.439-5.735 .381.303.381-.604.764-.301-1.146.904-1.91,1.811-2.674,3.018l-.764.303c-1.529,2.414-2.293,4.829-2.674,7.546 0,3.319 1.527,6.64.381,10.262-.764,1.812-.764,3.924-2.293,5.433 .766-3.319 2.676-6.338 2.293-9.658-.381-2.113-1.146-3.924-.764-6.036 .764-3.925 2.291-8.452 6.494-10.866-1.146,1.811-3.055,3.924-4.203,5.734 .383,0 .383-.302.766-.302s.764.302.764.604c.764,3.019 1.146,6.036 1.527,9.056 .764,2.716 1.146,5.433-.381,8.149-1.527,2.112-2.676,5.735-6.113,5.433-1.146,0 0-1.207-.383-2.113h.383v-.003z"/>
 <path d="m242.211,105.178c0,.604-.766,1.51-.383,2.113 1.146.905 2.674-.302 3.82-.906 2.293-1.811 3.82-3.924 4.967-6.036 .764-1.509.764-3.32 1.146-5.131 0-.604 0-1.208-.383-1.812 0-2.113 0-3.924.764-6.037 0-.604 0-1.207-.381-1.811h-.766c1.146-2.112 3.057-3.622 5.35-5.131h-.764c-1.529,1.207-3.057,2.112-4.203,3.319-1.91,2.113-3.057,3.925-3.82,6.339-.381,2.113-.764,3.924-.764,6.037-.381,1.811-1.146,3.622-1.91,5.131-.763,1.208-1.527,2.718-2.673,3.925"/>
 <path d="m242.592,105.178c-.381.604-.381,1.51-.381,2.113 0,.302.381.302.764.302 2.674-1.208 4.967-3.32 6.111-5.434 0-.301.766-.301.766-.603 2.674-5.132 1.145-10.264 1.91-15.696 0-.302-.383-.302-.766-.302l-.381.302c1.527-2.113 3.438-3.924 5.348-5.433-3.438,2.414-6.494,5.131-8.021,8.753-.764,3.019-1.146,6.037-1.527,9.056l-1.148,1.811v.905c-1.527,1.509-1.527,3.32-3.438,4.527 1.91-2.717 3.82-5.433 4.586-8.451 .381-3.622.764-7.244 2.672-10.564 1.529-2.415 3.439-4.226 6.496-6.036h.764c-.764.905-1.91,1.207-2.676,2.112-.764,1.207-1.527,2.112-2.674,3.019 .383,0 .766-.302.766-.302 1.145.604.381,1.811.381,2.716-.381,2.717 0,5.735-.381,8.452-.383,1.207-.766,2.716-1.146,3.924-1.529,3.019-4.201,6.641-8.787,7.244 0-.302 0-.604-.383-.604 .383-.604.383-.905.383-1.51-.002,0 .381-.301.762-.301z"/>
 <path d="m247.178,106.385c-.764.604-.383,1.208-.383,1.812h1.527c3.439-1.812 5.73-4.829 5.73-7.848 .383-3.32.766-6.339.766-9.659h-.766c1.146-1.509 2.293-3.018 4.203-3.924-4.203,1.812-6.494,5.131-6.877,8.754-.763,3.922-1.909,7.544-4.2,10.865"/>
 <path d="m247.178,106.385v1.812c4.584-.905 6.492-5.132 7.258-8.451 .383-2.717-.383-5.433.383-8.452 0-.301-.383-.301-.766-.604 0,.303 0,.303-.383.303 1.529-1.51 2.293-3.32 4.586-4.227-3.82,2.113-6.494,5.735-7.26,9.357 0,2.415-.381,4.829-1.91,6.941-.764.906-.381,2.717-2.291,3.32 1.146-1.207 1.91-2.716 2.291-3.924 2.676-5.433 1.91-12.677 9.17-15.695-1.527,1.207-3.057,2.415-4.203,3.924 .383,0 1.146-.302 1.146.604-.381,3.32 0,6.339-.764,9.659-1.146,3.019-2.674,5.735-6.113,7.244-.381,0-1.527.302-1.908-.302 1.145-.301-.766-1.509.764-1.509z"/>
 <path d="m248.705,110.913c-.764.604-.383,1.207-.383,1.812h1.529c3.438-1.812 5.73-4.83 5.73-7.849 .381-3.319.764-6.338.764-9.658h-.764c1.146-1.51 2.291-3.019 4.201-3.925-4.201,1.812-6.494,5.132-6.877,8.754-.762,3.924-1.909,7.546-4.2,10.866"/>
 <path d="m248.705,110.913v1.812c4.584-.906 6.494-5.132 7.258-8.452 .383-2.716-.381-5.433.383-8.451 0-.302-.383-.302-.764-.604 0,.302 0,.302-.383.302 1.529-1.51 2.291-3.32 4.584-4.227-3.82,2.113-6.494,5.735-7.258,9.357 0,2.414-.383,4.829-1.91,6.942-.764.905-.383,2.716-2.293,3.32 1.146-1.208 1.91-2.717 2.293-3.924 2.674-5.433 1.91-12.677 9.168-15.696-1.527,1.208-3.055,2.415-4.201,3.925 .381,0 1.146-.302 1.146.604-.383,3.319 0,6.338-.766,9.658-1.145,3.019-2.674,5.735-6.111,7.245-.383,0-1.529.301-1.91-.303 1.145-.301-.763-1.508.764-1.508z"/>
 <path d="m254.818,113.932v1.509c3.055,0 4.201-2.716 4.965-4.527 1.146-2.717.764-5.735-.381-8.452-.383-1.509 0-3.32-.766-4.829 0,0-.764,0-.764.302 .764-1.811 1.91-3.32 3.057-4.829-2.293,2.113-3.82,4.226-4.584,6.942-.383,3.32.764,6.641 0,9.961-.382,1.508-1.146,2.413-1.527,3.923"/>
 <path d="m255.199,113.932v1.509c2.291-.302 3.057-2.112 4.203-3.622v-.905c1.145-1.812.764-3.924.764-6.037-.383-2.113-1.146-3.924-1.146-6.036-.383-.302 0-1.208-.764-1.208 0,0-.383.302-.766.302 .766-1.811 2.293-3.32 3.439-4.829-2.293,2.113-4.201,4.527-4.201,7.244-.766,4.527.762,9.356-1.91,13.583 .381-1.207.764-2.113 1.145-3.32 .383-2.717.383-5.132.383-7.849-.383-3.32 1.145-7.545 4.965-9.658-1.527,1.208-2.291,3.019-3.438,4.527h.764c.766.302.383,1.208.766,1.811s0,1.208 0,1.812c1.527,5.131 2.291,11.771-4.203,14.488-.764-.604 0-1.207-.381-1.811h.38v-.001z"/>
 <path d="m257.109,116.95v1.509c3.057,0 4.201-2.717 4.967-4.527 1.146-2.717.764-5.735-.383-8.452-.383-1.509 0-3.32-.764-4.829 0,0-.764,0-.764.302 .764-1.812 1.91-3.32 3.057-4.829-2.293,2.113-3.82,4.226-4.586,6.941-.381,3.32.766,6.641 0,9.961-.38,1.509-1.146,2.414-1.527,3.924"/>
 <path d="m257.49,116.95v1.509c2.293-.302 3.057-2.112 4.203-3.622v-.905c1.146-1.812.764-3.924.764-6.037-.381-2.113-1.146-3.924-1.146-6.036-.381-.302 0-1.208-.764-1.208 0,0-.381.302-.764.302 .764-1.812 2.293-3.32 3.439-4.829-2.293,2.113-4.203,4.527-4.203,7.244-.764,4.527.764,9.357-1.91,13.583 .381-1.208.764-2.113 1.146-3.32 .381-2.717.381-5.132.381-7.849-.381-3.32 1.146-7.545 4.967-9.658-1.527,1.207-2.293,3.018-3.438,4.527h.764c.764.302.381,1.208.764,1.811s0,1.208 0,1.812c1.529,5.132 2.293,11.771-4.203,14.488-.762-.604 0-1.208-.381-1.811h.381v-.001z"/>
 <path d="m263.986,111.215c2.291-16.602-3.057-32.9-13.754-47.69-2.291-3.019-3.438-5.735-4.201-9.055-.766-2.113-.766-4.227-1.146-6.34-1.146-4.828.764-9.055 0-13.884-.383-.905-.764-2.112-1.146-3.019 0-.302-.381-.302-.764-.302-1.146-1.208-1.91-2.112-3.82-2.716-2.674-1.208-5.35-3.925-8.404-2.416-3.821,1.812-3.821,6.037-4.203,9.357 0,3.924 0,7.848 1.528,11.471v1.207c0,.301.764.905.764,1.207 3.055,10.564 11.842,18.412 21.012,25.958 .381.302 0,.604.381.906 1.91,1.509 3.057,3.018 4.586,4.829 4.201,6.036 6.875,12.073 8.404,18.713 .763,3.926 1.146,7.85.763,11.774z"/>
 <path d="m263.986,111.215c2.291-16.602-3.057-32.9-13.754-47.69-2.291-3.019-3.438-5.735-4.201-9.055-.766-2.113-.766-4.227-1.146-6.34-1.146-4.828.764-9.055 0-13.884-.383-.905-.764-2.112-1.146-3.019 0-.302-.381-.302-.764-.302-1.146-1.208-1.91-2.112-3.82-2.716-2.674-1.208-5.35-3.925-8.404-2.416-3.821,1.812-3.821,6.037-4.203,9.357 0,3.924 0,7.848 1.528,11.471v1.207c0,.301.764.905.764,1.207 3.055,10.564 11.842,18.412 21.012,25.958 .381.302 0,.604.381.906 1.91,1.509 3.057,3.018 4.586,4.829 4.201,6.036 6.875,12.073 8.404,18.713 .763,3.926 1.146,7.85.763,11.774z"/>
 <path d="m129.419,263.781c0,12.427-5.352,21.204-11.139,29.775-1.288,1.928.43,3.208 1.927,1.711 3.86-3.858 9.212-8.784 21.214-8.784 12.855,0 22.284,11.141 22.284,32.56 0,23.137-14.139,40.27-29.994,40.27-15.431,0-30.216-14.14-34.5-23.349-1.504-3.211-2.787-5.354-4.292-5.354-1.065,0-1.495,1.284-1.495,2.999 0,19.282 8.142,37.335 17.532,42.441 .302.163 2.801,2.47-1.812,3.458-3.79.823-28.831,2.799-37.002-2.356-1.053-.666.031-2.102 1.072-2.356 13.031-3.192 15.712-32.191 15.712-43.327 0-1.715-.43-3.003-1.713-3.003-1.505,0-2.358,1.506-3.217,3.217-4.928,10.066-16.283,23.344-33.425,23.344s-30-19.705-30-38.553 10.286-34.27 24.858-34.27c8.569,0 17.571,5.569 23.137,8.996 1.504.856 2.574-.856 1.074-1.93-9.213-6.642-12.214-14.352-12.214-25.915 0-7.713 7.716-23.989 35.139-23.989 27.43-.001 36.854,10.705 36.854,24.415z" fill="#231f20"/>
 <path d="m143.57 215.7a49.913 17.26 0 1 0 -99.826 0 49.913 17.26 0 1 0 99.826 0" fill="none" stroke="#231f20" stroke-width="5"/>
 <path d="m84.124,69.03c-19.124-44.613-73.48-34.203-73.838,17.576-.198,28.438 25.884,39.066 43.25,50.436 16.838,11.025 28.822,26.107 30.701,32.527 1.607-6.289 14.956-21.798 30.543-32.835 17.044-12.068 43.447-22 43.25-50.438-.361-51.907-55.662-60.098-73.906-17.266z" fill="#a8231c"/>
 <path d="m109.66 10.286c39.636 37.539 39.188 35.348 28.973 65.74-10.214 30.391-16.729-14.836-7.759-28.996" fill="#a8231c"/>
 <path d="m56.869 10.733c-39.635 37.537-39.188 35.346-28.973 65.738 10.214 30.393 16.729-14.836 7.759-28.996" fill="#a8231c"/>
</svg>
